<svg width="96" height="112" viewBox="0 0 96 112" fill="none" xmlns="http://www.w3.org/2000/svg">
<path fill-rule="evenodd" clip-rule="evenodd" d="M68.1706 13.284C63.8501 13.039 59.5296 12.7765 55.2091 12.4965C53.7007 8.69884 52.155 4.95373 50.5162 1.22612C49.5292 0.193591 48.2815 -0.191421 46.7916 0.0885876C46.3261 0.421097 45.8791 0.788608 45.4694 1.22612C43.8492 4.95373 42.2849 8.71634 40.7765 12.4965C36.456 12.794 32.1355 13.0565 27.815 13.284C25.8038 14.1065 25.2078 15.489 26.0086 17.4491C29.3049 20.1792 32.657 22.8043 36.0835 25.3593C35.3386 28.9994 34.3703 32.6045 33.197 36.1921C33.048 36.9447 33.048 37.6972 33.197 38.4497C34.184 40.0073 35.5807 40.4973 37.4058 39.9198C40.9068 37.7322 44.4079 35.5796 47.9649 33.4971C51.3728 35.5096 54.7436 37.5747 58.0584 39.7098C58.8033 40.1473 59.6041 40.2873 60.4608 40.1648C62.0251 39.7798 62.8259 38.8347 62.8631 37.3297C61.8202 33.3396 60.8146 29.3494 59.8462 25.3768C63.2914 22.8218 66.6435 20.1967 69.9398 17.4666C70.7405 15.524 70.1446 14.124 68.1333 13.3015L68.1706 13.284ZM57.1273 22.2967C55.6375 23.1893 55.116 24.4143 55.563 26.0068C56.3451 28.8769 57.1831 31.747 58.0957 34.5821C58.0212 34.6521 57.9281 34.7396 57.8536 34.8096C55.1719 33.0596 52.4343 31.3795 49.6968 29.717C48.5794 29.2619 47.4621 29.2619 46.3447 29.717C43.5885 31.362 40.8696 33.0596 38.1879 34.8096C38.8025 31.9045 39.566 28.9644 40.4785 26.0068C40.9255 24.3968 40.404 23.1718 38.9142 22.2967C36.5119 20.4942 34.1095 18.6916 31.7072 16.8891C34.8358 16.7141 37.9458 16.5566 41.0744 16.4341C42.4525 16.5041 43.5327 16.0316 44.3148 14.964C45.5439 11.9714 46.6985 8.97885 47.7973 5.93376C48.0207 5.93376 48.1884 6.03876 48.2815 6.28377C49.4733 9.15385 50.6279 12.0589 51.7639 14.964C52.5647 16.0316 53.6262 16.5216 55.0043 16.4341C58.1329 16.5566 61.2429 16.7141 64.3715 16.8891C61.9692 18.6916 59.5669 20.4942 57.1645 22.2967H57.1273Z" fill="#44C5FF"/>
<path fill-rule="evenodd" clip-rule="evenodd" d="M22.3027 31.082C21.595 31.2395 20.8687 31.2395 20.1425 31.082C15.4681 28.5794 10.8683 25.9718 6.34298 23.3118C5.9519 22.0517 6.30573 21.0717 7.4231 20.3717C8.4846 20.3017 9.43436 20.5817 10.3096 21.1592C14.3135 23.3293 18.3174 25.5343 22.3027 27.7044C23.5877 28.8244 23.5877 29.962 22.3027 31.082Z" fill="#44C5FF"/>
<path fill-rule="evenodd" clip-rule="evenodd" d="M89.773 22.2967C89.8102 22.9268 89.5495 23.4518 89.0653 23.8718C84.6331 26.2169 80.2195 28.6319 75.8618 31.082C73.5526 31.537 72.5283 30.6795 72.8635 28.4919C73.1429 28.2294 73.4222 27.9669 73.6829 27.7044C78.2269 25.2893 82.6964 22.8568 87.1472 20.3542C88.7487 20.1442 89.6426 20.7742 89.773 22.2792V22.2967Z" fill="#44C5FF"/>
<path fill-rule="evenodd" clip-rule="evenodd" d="M18.8202 44.9599C18.5409 45.3099 18.1684 45.5899 17.7401 45.7474C12.3023 45.9049 6.84579 45.9049 1.42657 45.7474C0.0112343 45.0824 -0.342599 44.0674 0.327821 42.7023C0.607163 42.4573 0.886506 42.2123 1.16585 42.0373C6.7713 42.0023 12.3768 42.0373 17.9636 42.1423C19.1741 42.8248 19.4534 43.7524 18.8016 44.9599H18.8202Z" fill="#44C5FF"/>
<path fill-rule="evenodd" clip-rule="evenodd" d="M95.6578 44.9599C95.3598 45.3099 94.9874 45.5899 94.5591 45.7474C89.1212 45.9049 83.6834 45.9049 78.2455 45.7474C76.4205 44.5749 76.3646 43.3324 78.022 42.0373C83.6089 42.0023 89.2329 42.0373 94.8198 42.1423C96.0303 42.8248 96.3096 43.7524 95.6578 44.9599Z" fill="#44C5FF"/>
<path fill-rule="evenodd" clip-rule="evenodd" d="M82.1004 109.852C79.9216 96.0964 71.8393 86.9611 57.8536 82.4285C63.2914 78.9109 66.1779 74.0107 66.4945 67.7631C65.2841 56.9128 58.8778 51.1376 47.2945 50.4026C39.5846 51.1201 34.1095 54.7952 30.8319 61.4454C28.0013 70.0906 30.4408 77.0908 38.1693 82.4285C31.5396 84.4061 25.9714 87.8537 21.4833 92.8238C16.809 98.109 14.3508 104.217 14.0342 111.094C14.3135 111.357 14.5929 111.619 14.8722 111.882C36.9588 112.039 59.0454 112.039 81.132 111.882C81.9514 111.409 82.2494 110.744 82.1004 109.852ZM35.1524 73.6257C32.2473 66.4155 34.1282 60.6054 40.7951 56.1252C42.8622 55.0927 45.0225 54.4627 47.2758 54.2177C54.6318 54.4452 59.4551 57.8403 61.8016 64.368C63.1052 70.9482 60.7587 76.0408 54.7249 79.5934C46.3819 82.7435 39.864 80.766 35.1338 73.6257H35.1524ZM18.2243 108.154C22.0978 94.0838 31.7072 86.3311 47.0337 84.9136C60.5352 85.2636 70.1818 91.1263 75.9735 102.502C76.6998 104.357 77.2958 106.229 77.7799 108.154C57.9281 108.452 38.0762 108.452 18.2429 108.154H18.2243Z" fill="#44C5FF"/>
<path fill-rule="evenodd" clip-rule="evenodd" d="M23.2711 58.4003C23.3083 59.0303 23.0476 59.5553 22.5634 59.9753C18.0753 62.3904 13.5872 64.8055 9.11777 67.1856C6.38022 67.4831 5.57944 66.4155 6.71543 64.0355C11.4084 61.5679 16.0454 59.0478 20.6453 56.4752C22.2468 56.2652 23.1407 56.8953 23.2711 58.4003Z" fill="#44C5FF"/>
<path fill-rule="evenodd" clip-rule="evenodd" d="M89.4192 66.853C88.6184 67.2906 87.799 67.4131 86.8865 67.2031C82.417 64.8055 77.9289 62.3904 73.4408 59.9928C72.3793 58.6628 72.5469 57.4903 73.925 56.4927C75.1541 56.4927 76.2715 56.8428 77.2771 57.5253C81.2065 59.6603 85.1173 61.7954 89.0467 63.948C89.8661 64.8405 89.9779 65.8205 89.4192 66.8705V66.853Z" fill="#44C5FF"/>
</svg>
