<svg width="112" height="112" viewBox="0 0 112 112" fill="none" xmlns="http://www.w3.org/2000/svg">
<path fill-rule="evenodd" clip-rule="evenodd" d="M111.431 92.6158C105.745 94.0507 100.023 95.3456 94.2673 96.483C93.4975 96.3605 92.9026 95.9755 92.5177 95.3106C92.3603 89.501 92.3603 83.7089 92.5177 77.9168C93.34 76.6744 94.4073 76.4469 95.6845 77.2169C95.9294 77.4794 96.1394 77.7943 96.2793 78.1443C96.3493 81.6791 96.4368 85.1963 96.5068 88.7311C108.054 73.4896 110.871 56.7084 104.975 38.4222C98.4488 21.9559 86.7441 11.1067 69.8257 5.87453C47.5185 0.799893 29.0604 7.04694 14.4864 24.5632C2.90418 40.977 0.874669 58.5107 8.38037 77.2169C11.1272 83.184 14.8188 88.5211 19.4202 93.1932C19.7002 95.8005 18.6504 96.6405 16.2535 95.6606C2.90418 81.6266 -2.22209 64.9678 0.87467 45.7192C5.23113 25.4381 17.0058 11.3691 36.2162 3.5122C40.9751 1.77982 45.8389 0.642406 50.7902 0.0999447C73.5873 -1.05497 91.258 7.79939 103.785 26.663C112.848 42.3069 114.405 58.6682 108.491 75.782C106.392 81.2941 103.523 86.3512 99.9185 90.9359C102.823 90.5159 105.727 89.9735 108.614 89.3085C111.606 88.696 112.533 89.7985 111.431 92.5983V92.6158Z" fill="#44C5FF"/>
<path fill-rule="evenodd" clip-rule="evenodd" d="M96.2618 49.2364C96.0869 48.6414 95.7544 48.204 95.2121 47.9415C92.5702 47.889 89.9458 47.784 87.339 47.5915C86.5866 44.8442 85.5369 42.2194 84.1722 39.7171C85.7643 37.8972 87.4614 36.1298 89.211 34.45C89.5434 33.925 89.6134 33.3825 89.456 32.8051C86.5342 29.4103 83.4374 26.1556 80.1657 23.0408C79.3434 22.4108 78.4861 22.3233 77.5763 22.8133C75.8792 24.5807 74.1296 26.2606 72.2926 27.8704C69.7382 26.488 67.0613 25.4031 64.297 24.5632C64.227 21.9734 64.1395 19.4011 64.0695 16.8112C63.8071 16.2688 63.3872 15.9013 62.7749 15.7613C58.2259 15.6388 53.6945 15.6038 49.1456 15.6388C48.6032 15.8838 48.1658 16.2863 47.8509 16.8287C47.7984 19.4535 47.6935 22.0959 47.501 24.7032C44.7542 25.4381 42.1298 26.488 39.6279 27.8704C37.8083 26.2606 36.0412 24.5807 34.3442 22.8133C33.8368 22.4808 33.2944 22.4108 32.717 22.5858C29.3229 25.5081 26.0686 28.5879 22.9544 31.8602C22.3245 32.6826 22.2371 33.5575 22.7269 34.4675C24.494 36.1473 26.1736 37.9147 27.7657 39.7346C26.4011 42.2369 25.3338 44.8617 24.599 47.609C21.9921 47.819 19.3677 47.924 16.7259 47.959C16.1835 48.2215 15.8336 48.6589 15.6761 49.2539C15.5187 53.8036 15.5187 58.3357 15.6761 62.8854C15.8511 63.4979 16.1835 63.9353 16.7259 64.1803C19.3328 64.2503 21.9046 64.3378 24.494 64.4078C25.3163 67.1901 26.4011 69.8499 27.7832 72.4047C26.1911 74.2421 24.5115 75.992 22.7444 77.6893C22.2546 78.5993 22.342 79.4392 22.9719 80.2792C25.9112 83.2189 28.833 86.1587 31.7723 89.0985C32.5946 89.7285 33.4519 89.7985 34.3617 89.326C36.0587 87.5586 37.8258 85.8613 39.6454 84.2689C41.08 84.9688 42.5322 85.6338 44.0018 86.2637C33.8543 91.0934 28.0457 99.0903 26.611 110.237C26.7685 110.972 27.1709 111.514 27.7832 111.882C46.3638 112.039 64.9268 112.039 83.4899 111.882C83.8573 111.584 84.1197 111.252 84.3122 110.832C83.3499 99.5278 77.7513 91.4084 67.5162 86.4912C69.1258 85.7913 70.7529 85.0388 72.345 84.2689C74.1821 85.8613 75.9317 87.5586 77.6288 89.326C78.1362 89.641 78.6785 89.711 79.2559 89.5535C82.6676 86.6312 85.9218 83.5339 89.0186 80.2617C89.6484 79.4392 89.7359 78.5818 89.246 77.6719C87.4964 75.9745 85.7993 74.2246 84.2072 72.3872C85.5719 69.8324 86.6741 67.1726 87.4964 64.3903C90.0858 64.3203 92.6752 64.2328 95.2646 64.1628C95.8069 63.9178 96.1568 63.4804 96.3143 62.8679C96.4718 58.3182 96.4718 53.7861 96.3143 49.2364H96.2618ZM49.8454 60.8731C47.1161 62.168 44.9816 64.0928 43.3895 66.6301C38.3157 59.7181 38.2457 52.7536 43.162 45.7192C46.1363 42.2719 49.8629 40.242 54.3244 39.6121C63.5622 39.5596 69.4757 43.9518 72.0826 52.7711C73.0274 58.1958 71.7152 62.9729 68.0761 67.1026C63.6146 60.4356 57.5261 58.3707 49.8629 60.8731H49.8454ZM57.6136 83.6739C50.4578 84.1989 46.3813 80.9091 45.384 73.8046C45.8739 68.5725 48.6032 65.2477 53.607 63.8128C59.9405 63.3229 63.8946 66.1402 65.4867 72.2822C65.8891 78.1968 63.2822 82.0115 57.6136 83.6739ZM78.871 104.007C79.3609 105.355 79.7808 106.737 80.1657 108.12C63.7896 108.242 47.4135 108.277 31.0549 108.242C33.3469 98.0054 39.5229 91.4434 49.618 88.6086C51.2801 88.2586 52.9247 87.9786 54.5518 87.7861C66.1165 88.1186 74.2171 93.5082 78.8885 104.025L78.871 104.007ZM92.3778 60.2781C89.9458 60.2431 87.5314 60.2781 85.0995 60.4006C84.7671 60.5056 84.4871 60.6981 84.2772 60.9781C83.6124 63.3054 82.825 65.5627 81.9328 67.8026C81.0405 69.4299 80.2182 71.0923 79.4658 72.7547C79.4658 73.1747 79.5883 73.5597 79.8158 73.9271C81.4254 75.537 83.035 77.1469 84.6446 78.7568C82.6501 80.7516 80.6381 82.764 78.661 84.7413C76.9639 82.974 75.2144 81.2941 73.3773 79.6842C72.9049 79.5267 72.4325 79.5267 71.9601 79.6842C70.438 80.7516 68.7934 81.5741 67.0263 82.1515C69.1958 78.9318 69.9656 75.4145 69.3708 71.5648C76.0192 65.2127 77.9437 57.6008 75.1269 48.7639C71.5227 40.3995 65.1368 36.0074 55.969 35.6049C45.7339 36.1823 39.103 41.3445 36.1112 51.1263C34.5016 58.5982 36.3212 65.1078 41.5174 70.6374C41.0276 74.5746 41.7624 78.2668 43.7569 81.6791C42.4272 81.1716 41.15 80.4891 39.9953 79.6667C39.5229 79.5092 39.0505 79.5092 38.5781 79.6667C36.7411 81.2766 34.9915 82.9565 33.2944 84.7238C31.2999 82.729 29.3054 80.7166 27.3108 78.7393L32.1397 73.9096C32.3496 73.5596 32.4721 73.1572 32.4896 72.7372C31.2299 70.3924 30.0927 67.9425 29.0604 65.4402C28.623 64.0578 28.2381 62.6404 27.8882 61.223C27.6083 60.8556 27.2584 60.5931 26.8385 60.4006C24.4065 60.2781 21.9921 60.2431 19.5602 60.2781V51.8087C22.1671 51.9137 24.7565 51.8087 27.3108 51.4587C27.5908 51.2488 27.8007 50.9688 27.9057 50.6363C28.8155 46.8566 30.3026 43.3218 32.3671 40.0496C32.5421 39.4021 32.4546 38.7547 32.1397 38.1597C30.5301 36.5498 28.9205 34.9574 27.3108 33.3475C29.3229 31.3352 31.3174 29.3403 33.2944 27.3455C34.904 28.9554 36.5136 30.5652 38.1233 32.1751C38.4732 32.3851 38.8756 32.5251 39.313 32.5251C41.4475 31.4052 43.6344 30.3378 45.8914 29.3578C47.501 28.8329 49.1631 28.3604 50.8252 27.9404C51.1751 27.6605 51.4551 27.3105 51.6475 26.8905C51.7525 24.4582 51.805 22.0434 51.7525 19.611H60.2205C60.1155 22.2183 60.2205 24.8082 60.5704 27.363C60.7803 27.643 61.0603 27.8529 61.3752 27.9579C65.1543 28.8679 68.6884 30.3553 71.9601 32.4201C72.625 32.6126 73.2548 32.5076 73.8497 32.1926C75.4593 30.5827 77.0689 28.9904 78.6785 27.363C80.6731 29.3753 82.6851 31.3702 84.6621 33.365C83.0525 34.9749 81.4429 36.5673 79.8333 38.1772C79.6233 38.5272 79.5008 38.9471 79.4833 39.3671C80.7255 41.7119 81.8628 44.1443 82.895 46.6466C83.3324 48.0465 83.7173 49.4464 84.0672 50.8813C84.3472 51.2313 84.6971 51.5112 85.117 51.7037C87.5489 51.8087 89.9633 51.8612 92.3953 51.8087V60.2781H92.3778Z" fill="#44C5FF"/>
</svg>
