<svg width="112" height="112" viewBox="0 0 112 112" fill="none" xmlns="http://www.w3.org/2000/svg">
<path fill-rule="evenodd" clip-rule="evenodd" d="M63.0273 9.50399C60.717 11.8494 58.3891 14.1422 56.0263 16.4001C53.6634 14.1422 51.3355 11.8494 49.0252 9.50399C49.8653 8.68136 50.7054 7.84123 51.5281 7.00109C52.4207 7.87623 53.2783 8.75137 54.1535 9.6265C54.2585 6.406 54.311 3.203 54.2585 0H57.759C57.724 3.203 57.759 6.406 57.864 9.6265L60.4895 7.00109C61.3296 7.84123 62.1697 8.68136 63.0098 9.50399H63.0273Z" fill="#44C5FF"/>
<path fill-rule="evenodd" clip-rule="evenodd" d="M44.1944 9.95906C43.1267 13.057 42.0241 16.155 40.9039 19.253C37.9109 18.2379 34.9355 17.2227 31.9425 16.19C31.8725 15.1399 32.1 14.1247 32.5901 13.1271C33.8328 13.1271 35.0405 13.4071 36.1957 14.0197C34.953 11.1317 33.6053 8.22629 32.1525 5.37334C32.1875 5.19831 32.2575 5.05829 32.3626 4.93577C33.1327 4.58572 33.8678 4.18315 34.5504 3.74559C34.8304 3.69308 35.093 3.78059 35.3205 3.95562C36.7032 6.72105 38.086 9.48648 39.4687 12.2694C40.0288 11.1667 40.4138 9.99406 40.6589 8.76887C41.884 9.01391 43.0567 9.41647 44.1594 9.97656L44.1944 9.95906Z" fill="#44C5FF"/>
<path fill-rule="evenodd" clip-rule="evenodd" d="M80.5301 16.1725C77.5371 17.2052 74.5441 18.2203 71.5512 19.2355C70.431 16.1375 69.3458 13.0395 68.2607 9.94155C69.3808 9.38147 70.5535 8.9789 71.7612 8.73387C72.0062 9.95906 72.4088 11.1317 72.9689 12.2344C74.3866 9.38147 75.8218 6.54602 77.2396 3.71058C78.4298 3.97312 79.4449 4.51571 80.3025 5.33833C78.8323 8.20878 77.5021 11.0967 76.2594 13.9847C77.4146 13.3721 78.6048 13.092 79.865 13.092C80.3551 14.0897 80.5826 15.1224 80.5126 16.155L80.5301 16.1725Z" fill="#44C5FF"/>
<path fill-rule="evenodd" clip-rule="evenodd" d="M30.8748 29.0895C27.7068 29.8597 24.5738 30.7348 21.4584 31.715C21.0558 30.6298 20.6882 29.5446 20.3732 28.4244C21.5634 27.9344 22.8236 27.5143 24.0838 27.2343C21.2308 25.589 18.3954 23.9437 15.5424 22.2985C16.12 21.3883 16.6276 20.4257 17.0827 19.4455C20.0231 20.8283 22.8936 22.3685 25.7115 24.0488C25.5365 22.9636 25.2739 21.8609 24.9414 20.7582C25.0114 20.6007 25.0814 20.4607 25.1514 20.3207C26.1666 19.8656 27.1817 19.6556 28.2144 19.6556C29.1946 22.7711 30.0697 25.904 30.8398 29.072L30.8748 29.0895Z" fill="#44C5FF"/>
<path fill-rule="evenodd" clip-rule="evenodd" d="M88.4063 27.2343C89.684 27.5318 90.9267 27.9344 92.1169 28.4244C91.7843 29.5271 91.4168 30.6123 91.0317 31.715C87.9162 30.7348 84.7833 29.8597 81.6153 29.0895C82.4204 25.869 83.2955 22.6485 84.2407 19.463C85.2908 19.6906 86.2885 19.9706 87.3036 20.3557C87.3737 20.4957 87.4437 20.6357 87.5137 20.7932C87.1636 21.8784 86.9186 22.9811 86.7436 24.0838C89.474 22.491 92.2569 20.9508 95.0574 19.4805C95.7925 20.3557 96.3876 21.3008 96.9126 22.3335C94.0772 23.9787 91.2418 25.624 88.3888 27.2693L88.4063 27.2343Z" fill="#44C5FF"/>
<path fill-rule="evenodd" clip-rule="evenodd" d="M67.403 39.5912C66.4579 34.1128 63.2549 30.9098 57.7765 29.9647V26.2541H54.276V29.9647C48.8151 30.9098 45.5946 34.1128 44.6495 39.5912H40.9389V43.0917H44.6495C45.5946 48.5701 48.8151 51.7731 54.276 52.7182V56.4288H57.7765V52.7182C63.2549 51.7731 66.4579 48.5701 67.403 43.0917H71.1136V39.5912H67.403ZM63.9025 43.3193C63.0273 46.3823 61.0495 48.3601 57.9866 49.2352C57.7765 48.15 57.7065 47.0649 57.7765 45.9447H54.276C54.346 47.0474 54.276 48.1325 54.0659 49.2352C51.003 48.3601 49.0427 46.3823 48.1675 43.3193C49.2352 43.1092 50.3379 43.0217 51.4405 43.1092V39.6087C50.3554 39.6787 49.2527 39.6087 48.1675 39.3987C48.6401 37.9634 49.3577 36.6857 50.3379 35.5656C51.423 34.6904 52.5957 34.0078 53.8384 33.4827C54.2585 34.4804 54.416 35.5831 54.276 36.7732H57.7765C57.7065 35.6706 57.7765 34.5854 57.9866 33.4827C61.0495 34.3754 63.0273 36.3357 63.9025 39.3987C62.8173 39.6087 61.7321 39.6962 60.612 39.6087V43.1092C61.7146 43.0392 62.7998 43.1092 63.9025 43.3193Z" fill="#44C5FF"/>
<path fill-rule="evenodd" clip-rule="evenodd" d="M26.4816 42.4441C24.2238 44.807 21.9309 47.1349 19.5856 49.4452C18.7454 48.6051 17.9228 47.765 17.0827 46.9248C17.9578 46.0497 18.8329 45.1746 19.6906 44.2994C16.4876 44.1944 13.2846 44.1594 10.0816 44.1944V40.6939C13.2846 40.7464 16.4876 40.6939 19.6906 40.5888C18.8154 39.7137 17.9403 38.8386 17.0827 37.9809C17.9228 37.1758 18.7279 36.3357 19.4805 35.4605C21.8959 37.7184 24.2238 40.0463 26.4816 42.4616V42.4441Z" fill="#44C5FF"/>
<path fill-rule="evenodd" clip-rule="evenodd" d="M102.409 44.1769C99.2055 44.1419 95.985 44.1769 92.782 44.2819C93.6571 45.1746 94.5323 46.0322 95.4074 46.9073C94.5673 47.7475 93.7272 48.5876 92.887 49.4277C90.5592 47.1174 88.2488 44.7895 85.9909 42.4266C88.2663 40.0988 90.5241 37.7534 92.782 35.4255C93.6921 36.2132 94.5673 37.0533 95.4074 37.9459C94.5323 38.8211 93.6571 39.6962 92.782 40.5538C95.985 40.6589 99.2055 40.7114 102.409 40.6589V44.1769Z" fill="#44C5FF"/>
<path fill-rule="evenodd" clip-rule="evenodd" d="M53.4008 61.2596C50.5304 65.1627 46.7323 66.4404 42.0241 65.0927C40.1338 64.3051 38.5585 63.0974 37.3158 61.4871C37.1758 61.3121 37.2108 61.1546 37.4208 61.0495C38.366 60.542 39.2411 59.9644 40.0463 59.2993C42.7942 62.5898 45.9447 62.9748 49.4627 60.4895C49.8653 60.1394 50.1978 59.7368 50.4429 59.2993C51.4055 59.9819 52.4032 60.6295 53.4008 61.2596Z" fill="#44C5FF"/>
<path fill-rule="evenodd" clip-rule="evenodd" d="M74.8417 61.2596C71.9712 65.1627 68.1732 66.4404 63.4649 65.0927C61.5746 64.3051 60.0169 63.0974 58.7742 61.4871C58.6167 61.3121 58.6517 61.1546 58.8792 61.0495C59.8068 60.542 60.682 59.9644 61.4871 59.2993C64.13 62.4323 67.193 62.9048 70.676 60.717C71.1661 60.3144 71.5687 59.8244 71.8662 59.2993C72.8289 59.9819 73.8265 60.6295 74.8242 61.2596H74.8417Z" fill="#44C5FF"/>
<path fill-rule="evenodd" clip-rule="evenodd" d="M108.097 104.246C105.279 102.636 98.5054 100.448 95.3374 99.4681C87.3736 96.8776 79.3924 94.2697 71.4462 91.6618C71.3061 89.544 71.3061 87.4262 71.4462 85.3083C77.4846 81.0027 81.1952 75.1568 82.5954 67.8056C86.096 66.9305 88.5113 64.8126 89.8065 61.4521C90.2266 59.0192 90.5591 56.5863 90.8042 54.1185C90.6992 53.1208 90.5241 52.1406 90.2616 51.1605C88.8789 47.9225 86.4285 46.1897 82.9105 45.9097C82.7004 35.7581 78.3422 27.9869 69.8009 22.596C60.5245 17.4852 48.2375 17.9053 39.0661 24.7139C39.0311 24.7489 38.9961 24.7664 38.9611 24.7839C32.5201 30.3147 29.2471 37.3508 29.1071 45.8922C28.2844 45.8572 27.4968 45.9622 26.6917 46.2247C23.0336 47.5199 21.0558 50.1103 20.7932 53.9959C21.0033 56.1313 21.2483 58.2316 21.5634 60.3494C22.7711 64.3401 25.3965 66.8079 29.4396 67.7881C30.8573 75.1392 34.5679 80.9852 40.5888 85.2908C40.7464 87.4087 40.7464 89.5265 40.5888 91.6443C29.1771 95.3899 17.7653 99.153 6.35349 102.916C2.81794 104.281 0.700109 106.802 0 110.46V112H3.50055C3.60556 109.392 4.84826 107.537 7.21113 106.417C18.4654 102.584 29.7722 98.908 41.1314 95.3724C41.3765 96.6851 41.919 97.8403 42.7592 98.873C46.3997 103.126 50.8104 106.329 55.9913 108.499C61.1721 106.329 65.5827 103.109 69.2233 98.873C70.0634 97.8403 70.606 96.6851 70.8511 95.3724C78.4298 97.6653 85.9734 100.081 93.4996 102.619C93.4996 102.619 93.5346 102.619 93.5696 102.654C95.4949 103.371 101.761 105.314 103.669 105.979C104.666 106.434 105.594 106.942 106.522 107.502C107.852 108.692 108.534 110.197 108.499 112H112V110.46C111.545 107.869 110.25 105.769 108.062 104.229L108.097 104.246ZM82.928 49.4452C85.4834 49.9878 86.9361 51.5631 87.3211 54.136C87.0936 56.3063 86.7611 58.4591 86.3235 60.5945C85.6584 62.1872 84.5207 63.2899 82.928 63.885V49.4452ZM29.002 64.095C27.3218 63.2899 26.0966 62.0647 25.2915 60.3844C24.8364 58.3366 24.5213 56.2538 24.3113 54.1535C24.6263 51.8431 25.8515 50.2854 28.0219 49.4627H29.1071C29.1421 54.346 29.107 59.2293 29.002 64.1125V64.095ZM67.508 94.7248C65.7403 97.8753 63.2899 100.396 60.1744 102.268C58.8267 103.074 57.444 103.844 56.0263 104.579C52.2982 102.724 48.9727 100.308 46.0672 97.3677C45.2621 96.3176 44.667 95.1449 44.3169 93.8672C44.2119 91.7493 44.1769 89.6315 44.2119 87.5137C52.0181 90.9967 59.8244 90.9967 67.6306 87.5137C67.9456 89.9291 67.8931 92.3444 67.5255 94.7248H67.508ZM52.0881 86.306C41.0439 83.7331 34.5854 76.8545 32.7126 65.6528C32.6776 61.9597 32.6426 58.2841 32.6076 54.591C32.5726 50.3204 32.6776 46.0672 32.9401 41.7965C34.0603 36.2657 36.6682 31.6624 40.8339 27.9694C49.0252 21.9309 57.689 21.2483 64.9877 24.1888C73.3715 27.9694 78.1497 34.4279 79.3224 43.5468C79.4799 50.8454 79.4799 58.1441 79.3224 65.4252C78.9723 68.8558 77.9747 72.0763 76.2769 75.0517C70.5185 83.6631 62.4673 87.4262 52.1056 86.3235L52.0881 86.306Z" fill="#44C5FF"/>
</svg>
