<svg width="112" height="112" viewBox="0 0 112 112" fill="none" xmlns="http://www.w3.org/2000/svg">
<path fill-rule="evenodd" clip-rule="evenodd" d="M105.026 88.4752C104.071 89.4555 103.117 90.4008 102.163 91.3812C102.006 91.5212 101.868 91.5212 101.712 91.3812L89.9996 79.5646C91.7867 78.4268 93.0013 76.8162 93.6433 74.768C94.2159 71.4594 93.6433 68.3258 91.995 65.4023C92.9493 64.2119 93.7995 62.9515 94.5282 61.6035C96.7491 56.6668 95.9683 52.2728 92.2032 48.4565C95.2916 42.5045 94.0424 37.7779 88.438 34.2767L101.92 20.6746C102.076 20.517 102.215 20.517 102.371 20.6746L105.251 23.5805C106.205 23.9657 107.038 23.7906 107.784 23.0204C109.172 16.4906 110.491 9.94339 111.775 3.37865C112.452 1.03285 111.602 -0.0525176 109.224 0.140048C102.492 1.453 95.7775 2.9235 89.1147 4.48153C88.4901 5.11174 88.2992 5.847 88.5595 6.70479C89.5485 7.93021 90.6242 9.0856 91.7694 10.171L80.3871 21.6549C78.0968 20.7096 75.7024 20.2019 73.2038 20.0794C68.9181 11.3089 63.175 10.1885 55.9743 16.7357C48.6695 10.1535 42.9264 11.3089 38.7274 20.1844C36.3503 20.1144 34.06 20.5345 31.8738 21.4273C28.0739 17.6985 24.3261 13.9523 20.5956 10.1535C21.6714 9.06809 22.7472 7.98272 23.8056 6.91486C24.1873 6.07457 24.0832 5.30431 23.4759 4.56906C16.1017 2.69592 8.65814 1.15539 1.12781 0C0.485828 0.507673 0.121457 1.1729 0.017351 2.01319C1.38808 9.03308 2.82821 16.018 4.33775 22.9853C4.99709 23.5981 5.76053 23.7906 6.66278 23.5455C7.75589 22.6527 8.79695 21.6899 9.75126 20.6395C9.89007 20.482 10.0462 20.482 10.185 20.6395C14.6269 25.1036 19.034 29.5501 23.4585 34.0316C17.6113 37.5678 16.2752 42.3995 19.4678 48.5266C15.772 52.0102 14.8524 56.1417 16.709 60.9033C17.4898 62.5138 18.4094 64.0368 19.4678 65.4723C18.7391 67.0829 18.1838 68.7459 17.8195 70.4965C17.0907 74.4704 18.3747 77.5515 21.6714 79.7572C17.8368 83.626 14.0196 87.4949 10.1677 91.3637C10.0289 91.5037 9.87271 91.5037 9.73391 91.3637C8.76225 90.3133 7.72119 89.333 6.64543 88.4577C5.76053 88.2126 4.97973 88.3877 4.3204 89.0179C2.81086 95.9853 1.37073 102.97 0 109.99C0.069404 110.9 0.503179 111.531 1.33603 111.881C8.43258 110.76 15.5118 109.43 22.5563 107.854C23.3891 107.277 23.6494 106.489 23.3371 105.509C22.3481 104.283 21.2897 103.128 20.1271 102.042C22.9033 99.2239 25.6968 96.4229 28.525 93.6745C30.8154 95.2675 33.3139 96.3354 36.038 96.9131C38.6233 98.331 41.3474 99.2939 44.2277 99.8191C48.3746 100.607 52.1571 99.8191 55.6099 97.4733C56.8939 98.4711 58.334 99.1888 59.9303 99.5915C65.2224 100.484 70.2368 99.5915 74.9563 96.9131C77.8192 96.3704 80.4045 95.215 82.7122 93.4644C85.6271 96.2829 88.4901 99.1538 91.3356 102.042C90.1904 103.128 89.1147 104.283 88.1257 105.509C87.9001 106.331 88.0736 107.032 88.6636 107.627C95.3437 109.202 102.041 110.603 108.791 111.863C110.543 112.318 111.567 111.636 111.879 109.85C110.508 102.795 109.034 95.7577 107.455 88.7553C106.726 88.0375 105.91 87.915 105.008 88.4227L105.026 88.4752ZM11.4864 16.4206C10.5147 15.7029 9.56039 15.7029 8.60609 16.4206C8.05086 16.9633 7.49563 17.541 6.9404 18.0837C6.02079 13.4796 5.17059 8.87553 4.40715 4.25395C8.84901 5.16426 13.2562 6.1446 17.6807 7.15994C17.0734 7.79016 16.5355 8.45539 16.015 9.17313C15.8588 9.76833 15.8588 10.3635 16.015 10.9412C20.1098 15.0726 24.2046 19.2041 28.2821 23.318C26.4429 25.3662 25.5233 27.7995 25.506 30.5654C20.8212 25.8388 16.1364 21.1297 11.469 16.4031L11.4864 16.4206ZM16.2405 100.869C15.9109 101.517 15.8588 102.165 16.015 102.883C16.5528 103.653 17.1775 104.353 17.8889 105.001C13.4644 105.981 9.05722 106.891 4.61536 107.802C4.54596 107.609 4.45921 107.417 4.3898 107.242C5.25735 102.795 6.17695 98.3661 7.14861 93.9546C7.94675 95.0224 8.93576 95.7577 10.133 96.1953C10.6015 96.0728 11.0526 95.8802 11.469 95.6351C15.5638 91.5387 19.624 87.4073 23.6147 83.2584C23.9964 85.044 24.4649 86.8296 25.0548 88.6152C25.3671 89.3855 25.7662 90.0857 26.2694 90.7335L16.2058 100.887L16.2405 100.869ZM39.9073 80.3349C43.1519 83.4685 47.0385 84.6414 51.5151 83.8011C52.3479 83.6435 53.1461 83.4685 53.9616 83.2409C54.2045 86.9697 54.2565 90.6809 54.0657 94.4097C50.6302 96.598 46.9865 97.0006 43.1172 95.6351C41.4515 95.1099 39.8205 94.4272 38.2416 93.6219C37.2005 91.5037 36.8709 89.298 37.2699 87.0397C36.6106 86.0068 35.691 85.6567 34.4938 86.0419C34.0253 86.427 33.6783 86.8996 33.5048 87.4773C33.3313 89.1404 33.418 90.786 33.7303 92.3965C29.9825 90.716 27.9351 87.81 27.536 83.6785C27.4666 82.103 27.536 80.545 27.7616 79.0045C27.2584 77.9191 26.4256 77.3589 25.2283 77.3239C21.4979 75.8009 20.4395 73.14 22.0184 69.4112C22.2266 68.6234 22.591 67.9757 23.1289 67.398C25.9571 67.9757 28.8026 67.9757 31.6309 67.398C31.8217 68.9735 32.3075 70.4615 33.0536 71.862C33.8344 72.5973 34.6673 72.7023 35.6042 72.1946C36.0727 71.792 36.2809 71.2668 36.2809 70.6366C33.418 65.0697 34.8234 61.0608 40.4799 58.575C42.2844 57.9448 44.1409 57.4371 45.9975 57.017C47.2815 55.3714 46.8997 54.216 44.887 53.5508C41.1218 54.0409 37.7384 55.4239 34.7193 57.6822C33.0363 59.3102 31.8564 61.2534 31.1797 63.4942C28.4209 64.2644 25.6968 64.2119 22.9901 63.3891C21.4111 61.7611 20.3354 59.8179 19.7801 57.5771C19.4505 54.9863 20.266 52.833 22.2093 51.1174C24.8466 52.798 27.6748 53.4282 30.7113 53.0081C31.6656 51.8702 31.5788 50.8374 30.4857 49.892C27.883 49.8045 25.5233 49.0167 23.4065 47.5462C20.2139 42.3469 21.4632 38.6882 27.1717 36.605C28.1433 37.3402 29.115 38.128 30.0519 38.9508C32.7413 41.0515 35.7777 41.8743 39.1091 41.4191C39.8726 40.4913 39.942 39.5285 39.3347 38.5131C35.5695 38.128 32.4464 36.5175 29.9305 33.7165C28.8026 26.8367 31.7003 23.6156 38.6754 24.0182C39.0224 25.2261 39.6644 26.2064 40.6707 26.9242C42.5446 26.9592 43.256 26.0314 42.7702 24.1232C42.4058 23.4405 42.0762 22.7228 41.7812 22.005C42.614 19.8343 43.9674 18.0662 45.7719 16.6482C46.3098 16.4906 46.8477 16.2981 47.3162 16.088C48.6001 16.1755 49.7973 16.5957 50.8558 17.3309C51.9836 18.2412 53.042 19.2391 54.0657 20.3419C54.2045 24.2108 54.2045 28.0621 54.0657 31.9484C51.3069 33.6115 48.7736 33.3664 46.4313 31.1606C44.2277 30.863 43.4469 31.8084 44.1062 33.9616C47.0212 36.71 50.3526 37.4453 54.1698 36.1848V43.3273C51.0119 42.592 47.9234 42.7846 44.887 43.87C43.1346 44.6052 42.0241 45.8657 41.573 47.6688C41.573 48.8242 42.1629 49.4544 43.3254 49.5594C43.7071 49.4719 44.0715 49.3493 44.4532 49.2093C45.3381 47.8613 46.6048 47.0386 48.2011 46.7585C50.2138 46.5659 52.1918 46.6884 54.1698 47.0911C54.2045 53.4107 54.1698 59.7479 54.0657 66.0675C52.4867 66.9603 50.8211 67.1529 49.086 66.6102C48.2184 66.1026 47.2815 65.6999 46.3098 65.3848C44.7309 65.7524 44.2277 66.6978 44.7656 68.2908C47.5417 70.5666 50.6822 71.2493 54.1698 70.304C54.2392 73.3325 54.1698 76.3435 53.9442 79.3371C50.3352 80.8776 46.8824 80.65 43.551 78.6718C43.0305 78.1467 42.5099 77.6215 41.9894 77.0963C39.4388 76.9212 38.7448 78.0066 39.8899 80.3349H39.9073ZM83.7012 23.458C87.5878 19.2916 91.5785 15.1952 95.6387 11.1863C95.9683 10.5386 96.0377 9.87337 95.8642 9.17313C95.361 8.47289 94.8058 7.79016 94.2159 7.15994C98.5016 6.17961 102.787 5.21678 107.038 4.25395C107.299 4.32398 107.437 4.49903 107.489 4.81414C106.622 9.24315 105.702 13.6722 104.713 18.0837C103.915 17.0333 102.926 16.2981 101.729 15.8604C101.26 15.983 100.827 16.1755 100.41 16.4206C95.5693 21.2873 90.7457 26.1539 85.9221 31.0381C85.8874 28.4822 85.1587 26.1714 83.7185 24.1232C83.5624 23.8957 83.5624 23.6856 83.7185 23.458H83.7012ZM81.7058 72.3172C81.3935 72.8073 81.3241 73.315 81.4803 73.8752C82.556 76.0985 83.4409 78.4093 84.135 80.7901C84.6034 84.7989 83.3021 88.1076 80.2657 90.716C79.5022 91.2411 78.6867 91.6613 77.8365 91.9414C78.305 90.3308 78.3571 88.6677 77.9407 87.0397C77.4895 85.8318 76.6567 85.4291 75.4074 85.8143C74.9216 85.9893 74.5746 86.3395 74.4184 86.7946C74.6787 89.2104 74.2796 91.5212 73.1865 93.7095C69.8898 95.6001 66.3502 96.4579 62.5677 96.2829C60.6938 96.0903 59.0281 95.39 57.5879 94.1646C57.4838 90.4359 57.4491 86.7246 57.4838 82.9958C60.5723 83.9236 63.6608 84.0287 66.7666 83.3284C68.8487 82.7157 70.5838 81.5778 71.9546 79.8798C72.718 77.4464 71.8852 76.5186 69.4213 77.0788C67.2524 79.5471 64.5283 80.51 61.2316 79.9848C59.965 79.7572 58.7157 79.4946 57.4665 79.197V70.0414C60.7111 70.9692 63.7302 70.479 66.5411 68.6059C67.7036 66.2251 66.9748 65.1747 64.3375 65.4898C62.1513 66.9078 59.8783 67.0829 57.4838 66.05V47.0736C59.6354 46.5659 61.7695 46.4609 63.8863 46.7409C65.3265 47.0386 66.4369 47.8263 67.2177 49.0867C68.7967 49.6294 69.8204 49.1218 70.3062 47.5287C69.5428 45.323 68.0332 43.905 65.7603 43.2923C63.0709 42.6971 60.3814 42.6971 57.692 43.2923C57.4491 40.8239 57.3971 38.3731 57.5879 35.9223C60.6764 37.0251 63.574 36.6925 66.3328 34.9244C66.8881 34.4167 67.3739 33.8741 67.7556 33.2438C68.0853 31.8084 67.5301 31.0031 66.1073 30.793C64.858 31.4057 63.6087 32.0534 62.3421 32.6837C60.607 33.0513 59.0281 32.7187 57.5879 31.6858C57.4491 27.9045 57.4491 24.1057 57.5879 20.3244C59.1322 18.2762 61.0928 16.8583 63.4526 16.0705C65.7776 16.2455 67.5127 17.3659 68.6405 19.4316C69.0396 20.2544 69.456 21.0597 69.8551 21.8825C69.1264 23.0554 68.7967 24.3158 68.8661 25.6813C69.2131 26.364 69.7683 26.6441 70.5318 26.5741C70.9135 26.5391 71.2779 26.4865 71.6422 26.3465C72.1628 25.5937 72.6139 24.771 72.9609 23.8957C79.936 23.3705 82.8336 26.5741 81.7058 33.4889C79.3808 36.3424 76.3964 37.8654 72.7527 38.0755C71.5728 39.1959 71.5728 40.2987 72.7527 41.4191C75.7371 41.6292 78.4612 40.894 80.9424 39.1959C82.0181 38.1805 83.1633 37.2527 84.3605 36.3949C89.8781 38.3731 91.2142 41.9443 88.3513 47.1086C86.2518 48.7541 83.8573 49.6119 81.1679 49.6819C79.9881 50.8023 79.9881 51.9052 81.1679 53.0256C84.0655 53.2707 86.755 52.6405 89.2361 51.1349C91.1968 52.5704 92.0817 54.4961 91.8908 56.9469C91.353 59.3978 90.2078 61.516 88.4553 63.3016C85.7312 64.0369 83.0071 64.0369 80.2657 63.3016C79.3461 59.8354 77.2813 57.297 74.0714 55.7215C71.434 54.286 68.6405 53.6033 65.6735 53.7083C64.5977 54.6887 64.5283 55.7215 65.4479 56.8244C68.4497 57.3321 71.2432 58.3824 73.8458 59.9405C76.3444 61.9536 77.1252 64.5095 76.1709 67.6256C75.8412 68.6059 75.5115 69.5512 75.1818 70.5316C75.6677 72.3347 76.7434 72.7723 78.3918 71.862C79.1032 70.5141 79.6237 69.0961 79.9534 67.6256C80.0575 67.398 80.2483 67.2404 80.5086 67.1879C83.2327 67.7656 85.9568 67.7656 88.6809 67.1879C90.069 69.2361 90.5548 71.4594 90.121 73.8752C89.375 75.3107 88.2645 76.3436 86.807 76.9913C86.0956 75.5383 85.4363 74.0328 84.8116 72.5272C83.84 71.1268 82.8163 71.0567 81.7232 72.2997L81.7058 72.3172ZM107.68 107.784C103.169 106.839 98.6751 105.876 94.1985 104.878C94.8752 104.178 95.4825 103.425 96.0724 102.655C96.2286 102.025 96.1592 101.43 95.8469 100.869C92.4287 97.4207 88.9932 93.9546 85.5577 90.4884C86.9979 88.055 87.744 85.4116 87.7787 82.5582C92.2205 86.9347 96.645 91.3637 101.035 95.8452C101.555 96.1078 102.059 96.1778 102.596 96.0728C103.429 95.4075 104.245 94.7073 105.026 93.9546C105.997 98.4536 106.952 102.953 107.906 107.452C107.836 107.557 107.767 107.679 107.68 107.802V107.784Z" fill="#44C5FF"/>
</svg>
