<svg width="24" height="24" viewBox="0 0 24 24" fill="none" xmlns="http://www.w3.org/2000/svg">
<path d="M16.8305 6.13019C17.1217 5.93801 17.5176 5.9706 17.7739 6.22687C18.0301 6.48315 18.0628 6.87914 17.8706 7.17023L17.7739 7.28742L13.0615 11.9998L17.7739 16.7122L17.8706 16.8294C18.0627 17.1205 18.0302 17.5165 17.7739 17.7728C17.5176 18.029 17.1216 18.0616 16.8305 17.8695L16.7134 17.7728L12.001 13.0604L7.28855 17.7728C6.99567 18.0656 6.52088 18.0656 6.228 17.7728C5.93513 17.4799 5.93517 17.0051 6.228 16.7122L10.9404 11.9998L6.228 7.28742L6.13132 7.17023C5.93908 6.87911 5.97171 6.48317 6.228 6.22687C6.4843 5.97058 6.88024 5.93795 7.17136 6.13019L7.28855 6.22687L12.001 10.9393L16.7134 6.22687L16.8305 6.13019Z" fill="#989898"/>
</svg>
