<svg width="32" height="32" viewBox="0 0 32 32" fill="none" xmlns="http://www.w3.org/2000/svg">
<path fill-rule="evenodd" clip-rule="evenodd" d="M31.8267 14.9558C30.9517 11.7408 28.8917 9.78579 25.6417 9.08579C25.6517 7.94579 25.6417 6.80579 25.6067 5.66079C25.5767 5.54079 25.5267 5.42579 25.4667 5.31579C23.7567 3.60079 22.0467 1.89079 20.3317 0.180792C20.2417 0.130792 20.1467 0.0857918 20.0517 0.0407918C14.7917 0.00579179 9.52674 -0.00920806 4.26674 0.00579194C4.10674 0.105792 3.97674 0.245792 3.88174 0.425792C3.84674 1.56579 3.83674 2.70579 3.84674 3.84579C2.70674 3.83579 1.56174 3.84579 0.421739 3.88079C0.246739 3.96079 0.121739 4.09079 0.0367385 4.26579C-0.0282615 13.4208 -0.00826156 22.5758 0.106738 31.7208C0.191738 31.8308 0.296739 31.9108 0.421739 31.9658C7.82674 32.0108 15.2317 32.0108 22.6367 31.9658C22.8117 31.8858 22.9417 31.7558 23.0217 31.5808C23.0567 30.4408 23.0717 29.3008 23.0567 28.1558C23.7817 28.1708 24.5017 28.1558 25.2217 28.1208C25.4467 28.0208 25.5717 27.8458 25.6067 27.6008C25.6317 26.4808 25.6517 25.3658 25.6767 24.2458C26.4617 24.0608 27.2167 23.7958 27.9467 23.4408C31.1217 21.4858 32.4117 18.6558 31.8267 14.9558ZM20.4717 2.31079C21.4117 3.21579 22.3467 4.13579 23.2667 5.07079C22.3367 5.10579 21.4067 5.11579 20.4717 5.10579V2.31079ZM21.7317 30.6708H1.33174V5.17579H3.84674C3.83674 12.7208 3.84674 20.2658 3.88174 27.8108C3.96674 27.9658 4.09674 28.0708 4.26674 28.1208C10.0867 28.1558 15.9067 28.1708 21.7317 28.1558V30.6708ZM24.2467 26.8308H5.17174V1.33079H19.1467C19.1117 2.94079 19.1467 4.55079 19.2517 6.15079C19.3367 6.26079 19.4417 6.34079 19.5667 6.39579C21.1267 6.43079 22.6867 6.44079 24.2467 6.43079V8.94579C20.8267 9.12579 18.4367 10.7758 17.0867 13.9058C15.9517 17.6708 16.9367 20.7358 20.0517 23.0908C21.3317 23.9108 22.7267 24.3208 24.2467 24.3158V26.8308ZM27.5267 22.1158C24.9467 23.4508 22.5017 23.2408 20.1917 21.4858C18.2467 19.6758 17.5817 17.4758 18.2017 14.8858C19.1467 12.2058 21.0217 10.6708 23.8267 10.2758C27.1317 10.3008 29.3317 11.8608 30.4267 14.9558C31.0517 18.0008 30.0867 20.3858 27.5267 22.1158Z" fill="#44C5FF"/>
<path fill-rule="evenodd" clip-rule="evenodd" d="M16.5267 4.96579C16.4417 5.06079 16.3417 5.12079 16.2117 5.14079C13.5117 5.18579 10.8067 5.18579 8.10674 5.14079C7.71174 4.94079 7.58174 4.62579 7.72174 4.19579C7.81674 4.06579 7.92174 3.95079 8.03674 3.84579C10.7867 3.83579 13.5317 3.84579 16.2817 3.88079C16.6967 4.16579 16.7767 4.52579 16.5267 4.96579Z" fill="#44C5FF"/>
<path fill-rule="evenodd" clip-rule="evenodd" d="M16.5267 8.80579C16.4267 8.87579 16.3217 8.93079 16.2117 8.98079C13.5117 9.02579 10.8067 9.02579 8.10674 8.98079C7.68674 8.72079 7.58174 8.36079 7.79174 7.90079C7.87174 7.82079 7.95674 7.75079 8.03674 7.69079C10.7867 7.67579 13.5317 7.69079 16.2817 7.72579C16.6967 8.01079 16.7767 8.37079 16.5267 8.80579Z" fill="#44C5FF"/>
<path fill-rule="evenodd" clip-rule="evenodd" d="M12.3717 12.8258C10.9717 12.8708 9.57674 12.8708 8.17674 12.8258C7.69174 12.6008 7.56174 12.2408 7.79174 11.7408C7.87174 11.6608 7.95674 11.5908 8.03674 11.5308C9.52674 11.5208 11.0167 11.5308 12.5067 11.5658C13.0067 12.0508 12.9617 12.4708 12.3717 12.8258Z" fill="#44C5FF"/>
<path fill-rule="evenodd" clip-rule="evenodd" d="M27.8417 15.0958C26.4567 16.5058 25.0467 17.8908 23.6167 19.2508C23.3517 19.3108 23.0967 19.2858 22.8467 19.1808C22.0617 18.4408 21.3317 17.6608 20.6467 16.8408C20.6167 16.1758 20.9317 15.9058 21.5917 16.0358C22.1817 16.5608 22.7517 17.1058 23.3017 17.6808C24.5417 16.4308 25.7867 15.1958 27.0417 13.9758C27.8967 13.9358 28.1667 14.3108 27.8417 15.0958Z" fill="#44C5FF"/>
<path fill-rule="evenodd" clip-rule="evenodd" d="M12.5417 16.4208C11.6917 17.2708 10.8417 18.1208 9.99174 18.9708C9.74674 19.0758 9.49174 19.1008 9.22674 19.0408C8.67674 18.5858 8.17674 18.0858 7.72174 17.5408C7.60674 16.7208 7.94174 16.4258 8.73674 16.6658C9.00674 16.9358 9.27174 17.2008 9.54174 17.4708C10.2017 16.8058 10.8667 16.1408 11.5317 15.4808C11.6767 15.4208 11.8167 15.3608 11.9517 15.3058C12.6067 15.4258 12.8017 15.8008 12.5417 16.4208Z" fill="#44C5FF"/>
<path fill-rule="evenodd" clip-rule="evenodd" d="M12.6117 21.3808C11.7667 22.3008 10.8917 23.1958 9.99174 24.0708C9.69174 24.3058 9.38674 24.3058 9.08674 24.0708C8.65674 23.6408 8.22674 23.2108 7.79174 22.7808C7.52674 22.0158 7.79174 21.6508 8.59674 21.6958C8.93174 21.9608 9.24674 22.2508 9.54174 22.5708C10.2417 21.8558 10.9517 21.1558 11.6717 20.4708C12.3917 20.3658 12.7067 20.6708 12.6117 21.3808Z" fill="#44C5FF"/>
</svg>
