<svg width="32" height="26" viewBox="0 0 32 26" fill="none" xmlns="http://www.w3.org/2000/svg">
<path fill-rule="evenodd" clip-rule="evenodd" d="M31.9688 11.3174C31.7788 9.9524 31.0838 8.9374 29.8838 8.2724C30.1088 8.0624 30.2988 7.8174 30.4488 7.5474C31.0138 6.0774 30.6488 4.8974 29.3537 4.0124C27.8737 3.3924 26.6737 3.7324 25.7537 5.0374C25.2237 6.2274 25.3888 7.3074 26.2488 8.2724C26.1588 8.3424 26.0738 8.4074 25.9838 8.4724C25.5038 7.8074 24.9088 7.2674 24.1988 6.8524C24.6788 6.4174 24.9737 5.8774 25.0937 5.2324C25.2537 3.7624 24.6688 2.7174 23.3388 2.0924C21.7638 1.6324 20.5588 2.1074 19.7338 3.5124C19.2438 4.7824 19.4738 5.8974 20.4288 6.8524C20.2688 6.9624 20.1038 7.0574 19.9338 7.1524C19.4588 6.3674 18.8088 5.7724 17.9838 5.3674C18.9188 4.4374 19.2187 3.3374 18.8787 2.0624C18.2637 0.5824 17.1538 -0.1026 15.5388 0.0124003C14.9538 0.1374 14.4237 0.3924 13.9537 0.7724C12.6137 2.3174 12.6387 3.8524 14.0187 5.3674C13.2287 5.8124 12.5787 6.4074 12.0687 7.1524C11.8987 7.0574 11.7288 6.9624 11.5738 6.8524C11.7588 6.6874 11.9287 6.4974 12.0687 6.2924C12.9087 4.5624 12.5238 3.1824 10.9088 2.1574C9.45375 1.6224 8.24875 1.9624 7.30875 3.1824C6.60375 4.5274 6.76875 5.7524 7.80375 6.8524C7.09375 7.2674 6.49875 7.8074 6.01875 8.4724C5.92875 8.4074 5.84375 8.3424 5.75375 8.2724C6.43375 7.5724 6.68875 6.7374 6.51375 5.7624C6.27375 4.7724 5.66375 4.1224 4.69375 3.8124C3.55375 3.5374 2.59875 3.8374 1.81875 4.7024C1.01375 5.9724 1.11375 7.1624 2.11875 8.2724C0.91375 8.9374 0.22375 9.9524 0.03375 11.3174C-0.01125 12.9924 -0.01125 14.6674 0.03375 16.3424C0.31875 17.1374 0.87875 17.4474 1.71875 17.2674C1.73375 19.7774 1.78875 22.2924 1.88375 24.8024C1.93875 24.9474 2.03875 25.0474 2.18375 25.1024C3.32875 25.1424 4.47375 25.1424 5.61875 25.1024C5.80875 25.0474 5.92875 24.9224 5.98375 24.7374C6.05375 22.2474 6.10875 19.7574 6.14875 17.2674C6.43875 17.2774 6.72375 17.2674 7.00875 17.2324C7.11375 17.1874 7.21375 17.1324 7.30875 17.0674C7.36875 19.6224 7.43375 22.1824 7.50375 24.7374C7.55875 24.8974 7.65375 25.0174 7.80375 25.1024C9.05875 25.1424 10.3138 25.1424 11.5738 25.1024C11.7138 25.0474 11.8138 24.9474 11.8688 24.8024C11.9488 22.0674 12.0288 19.3374 12.0988 16.6024C12.3638 16.6174 12.6287 16.6024 12.8937 16.5724C13.1237 16.5524 13.3088 16.4524 13.4538 16.2724C13.5238 19.0974 13.5887 21.9174 13.6537 24.7374C13.7287 24.9024 13.8537 25.0224 14.0187 25.1024C15.3388 25.1424 16.6638 25.1424 17.9838 25.1024C18.1038 25.0474 18.2037 24.9724 18.2837 24.8674C18.4037 22.0074 18.4888 19.1424 18.5438 16.2724C18.6738 16.4324 18.8388 16.5324 19.0438 16.5724C19.3288 16.6024 19.6138 16.6174 19.9038 16.6024C19.9738 19.3374 20.0538 22.0674 20.1338 24.8024C20.1888 24.9474 20.2888 25.0474 20.4288 25.1024C21.6888 25.1424 22.9438 25.1424 24.1988 25.1024C24.3438 25.0174 24.4437 24.8974 24.4987 24.7374C24.5637 22.1824 24.6338 19.6224 24.6938 17.0674C25.0538 17.2574 25.4388 17.3474 25.8538 17.3324C25.8938 19.8024 25.9488 22.2674 26.0188 24.7374C26.0738 24.9224 26.1938 25.0474 26.3788 25.1024C27.5288 25.1424 28.6738 25.1424 29.8188 25.1024C29.9638 25.0474 30.0588 24.9474 30.1138 24.8024C30.2138 22.3124 30.2687 19.8224 30.2787 17.3324C31.0137 17.4424 31.5538 17.1774 31.8988 16.5374C31.9788 15.6374 32.0088 14.7374 31.9988 13.8274C31.9888 12.9924 31.9788 12.1524 31.9688 11.3174ZM2.54875 5.6974C2.79875 5.3024 3.13875 5.0124 3.57375 4.8374C4.45875 4.7624 5.06375 5.1374 5.38875 5.9624C5.49875 7.1974 4.93875 7.8224 3.70375 7.8424C2.61375 7.5074 2.22875 6.7874 2.54875 5.6974ZM5.22375 16.3074C5.13375 16.3824 5.07875 16.4824 5.05875 16.6024C4.99375 19.0724 4.93875 21.5424 4.89375 24.0074H2.97875C2.92375 21.4974 2.84875 18.9824 2.74375 16.4724C2.71375 16.3524 2.63375 16.2724 2.51375 16.2424C2.06875 16.2274 1.62875 16.1924 1.19375 16.1424C1.11375 14.5774 1.10375 13.0124 1.15875 11.4474C1.38875 10.1274 2.14875 9.3124 3.43875 9.0024C4.25375 8.9024 4.97875 9.1024 5.61875 9.5974C5.57375 9.7274 5.54375 9.8574 5.52375 9.9924C5.47875 11.8874 5.47875 13.7824 5.52375 15.6774C5.59375 15.8624 5.69375 16.0274 5.81875 16.1774C5.61375 16.1874 5.41375 16.2324 5.22375 16.3074ZM8.23375 3.8474C8.49875 3.4774 8.83875 3.2124 9.25875 3.0524C10.7088 2.9724 11.4038 3.6574 11.3388 5.1024C11.0187 6.0724 10.3488 6.5024 9.32375 6.3924C8.09875 5.9174 7.73875 5.0674 8.23375 3.8474ZM11.3088 15.5124C11.1638 15.5674 11.0638 15.6674 11.0088 15.8124C10.9138 18.5424 10.8387 21.2774 10.7787 24.0074H8.59875C8.55375 21.2524 8.47875 18.4974 8.36375 15.7474C8.28375 15.6424 8.18375 15.5674 8.06875 15.5124C7.58875 15.5024 7.11375 15.4674 6.64375 15.4124C6.60375 13.6524 6.60375 11.8874 6.64375 10.1274C6.99375 8.6874 7.88375 7.8274 9.32375 7.5474C10.1938 7.4924 10.9637 7.7374 11.6387 8.2724C11.5387 8.6624 11.4837 9.0624 11.4737 9.4624C11.4287 11.1624 11.4287 12.8574 11.4737 14.5574C11.4937 14.8924 11.6137 15.1924 11.8337 15.4474C11.6587 15.4674 11.4838 15.4924 11.3088 15.5124ZM14.1837 2.5224C14.4387 1.7924 14.9337 1.3274 15.6687 1.1324C16.9737 1.1024 17.7238 1.7324 17.9188 3.0174C17.6988 4.3824 16.9088 5.0024 15.5388 4.8674C14.4388 4.4574 13.9887 3.6724 14.1837 2.5224ZM16.6938 10.9874C16.4838 11.2074 16.2488 11.4074 15.9988 11.5824C15.6888 11.4024 15.4487 11.1574 15.2737 10.8524C15.5237 9.9124 15.7437 8.9624 15.9337 8.0124C16.0087 8.0174 16.0488 8.0624 16.0688 8.1424C16.3088 9.0874 16.5188 10.0374 16.6938 10.9874ZM19.4038 14.4874C19.3838 14.5924 19.3288 14.6674 19.2388 14.7224C18.7538 14.7424 18.2688 14.7624 17.7838 14.7874C17.5638 14.8774 17.4387 15.0424 17.4237 15.2824C17.3587 18.1924 17.3038 21.1024 17.2588 24.0074H14.7438C14.7088 21.0124 14.6337 18.0124 14.5137 15.0174C14.4337 14.9174 14.3337 14.8374 14.2137 14.7874C13.7037 14.7724 13.1987 14.7424 12.6937 14.6874C12.6187 12.7274 12.6087 10.7674 12.6637 8.8024C12.9987 7.4874 13.8038 6.6074 15.0738 6.1574C15.1438 6.1474 15.2087 6.1624 15.2737 6.1924C14.8437 7.8624 14.4237 9.5374 14.0187 11.2174C14.0737 11.3924 14.1588 11.5424 14.2838 11.6774C14.7438 12.0524 15.2087 12.4274 15.6687 12.8024C15.8887 12.9374 16.1087 12.9374 16.3337 12.8024C16.8737 12.3724 17.3888 11.9224 17.8838 11.4474C17.9288 11.1374 17.9038 10.8274 17.8188 10.5224C17.4588 9.0774 17.0987 7.6324 16.7287 6.1924C18.1187 6.5274 18.9888 7.3974 19.3388 8.8024C19.4438 10.6974 19.4638 12.5924 19.4038 14.4874ZM20.8588 3.8474C21.1238 3.4774 21.4688 3.2124 21.8838 3.0524C23.3388 2.9724 24.0337 3.6574 23.9687 5.1024C23.5287 6.2424 22.7238 6.6274 21.5538 6.2574C20.6138 5.6624 20.3838 4.8574 20.8588 3.8474ZM25.3538 15.4124C24.8888 15.4674 24.4138 15.5024 23.9338 15.5124C23.6538 15.6274 23.5338 15.8374 23.5688 16.1424C23.5188 18.7624 23.4638 21.3874 23.4038 24.0074H21.2238C21.1638 21.2774 21.0888 18.5424 20.9938 15.8124C20.9388 15.6674 20.8388 15.5674 20.6938 15.5124C20.5188 15.4924 20.3438 15.4674 20.1638 15.4474C20.2888 15.2974 20.3888 15.1324 20.4638 14.9524C20.5088 12.8824 20.5088 10.8074 20.4638 8.7374C20.4388 8.5924 20.4038 8.4474 20.3638 8.3074C20.8338 7.8724 21.3888 7.6224 22.0188 7.5474C23.2888 7.5074 24.2688 8.0124 24.9588 9.0674C25.1438 9.4024 25.2738 9.7524 25.3538 10.1274C25.3988 11.8874 25.3988 13.6524 25.3538 15.4124ZM26.8087 5.4974C27.0737 5.1824 27.3938 4.9624 27.7688 4.8374C28.8538 4.7824 29.4688 5.2874 29.6188 6.3574C29.4088 7.5224 28.7238 7.9924 27.5688 7.7774C26.6038 7.2624 26.3537 6.5024 26.8087 5.4974ZM30.8088 16.1424C30.3738 16.1924 29.9338 16.2274 29.4888 16.2424C29.3688 16.2724 29.2888 16.3524 29.2588 16.4724C29.1538 18.9824 29.0788 21.4974 29.0238 24.0074H27.1088C27.0638 21.5424 27.0088 19.0724 26.9438 16.6024C26.9238 16.4824 26.8688 16.3824 26.7788 16.3074C26.5888 16.2324 26.3888 16.1874 26.1838 16.1774C26.3088 16.0274 26.4088 15.8624 26.4788 15.6774C26.5238 13.8074 26.5238 11.9324 26.4788 10.0574C26.4588 9.9024 26.4288 9.7474 26.3788 9.5974C26.7488 9.3274 27.1438 9.1274 27.5688 9.0024C29.3538 8.9024 30.4438 9.7174 30.8438 11.4474C30.8988 13.0124 30.8888 14.5774 30.8088 16.1424Z" fill="#44C5FF"/>
</svg>
