<svg width="32" height="23" viewBox="0 0 32 23" fill="none" xmlns="http://www.w3.org/2000/svg">
<path fill-rule="evenodd" clip-rule="evenodd" d="M32 2.75V2.25C31.88 2.115 31.735 2.025 31.56 1.965C25.875 1.285 20.19 0.63 14.5 0C10.205 0.465 5.91 0.975 1.625 1.53C1.21 1.735 0.93 2.055 0.78 2.5C0.265 3.875 0.355 5.21 1.06 6.5C0.84 6.82 0.685 7.175 0.595 7.56C0.32 8.715 0.455 9.83 1 10.905C0.44 11.66 0.105 12.505 0 13.435V15.56C0.08 15.95 0.175 16.345 0.28 16.75C0.45 17.52 0.88 18.095 1.56 18.465C7.185 19.145 12.81 19.81 18.435 20.465C18.81 20.51 19.185 20.51 19.56 20.465C20.71 20.325 21.855 20.19 23 20.06C22.99 20.79 23 21.52 23.03 22.25C23.075 22.365 23.145 22.445 23.25 22.5H23.75C23.87 22.425 23.965 22.32 24.03 22.185C24.345 21.6 24.685 21.04 25.06 20.5C25.43 20.955 25.785 21.425 26.125 21.905C26.24 21.965 26.365 21.995 26.5 22C26.715 22.02 26.875 21.935 26.97 21.75C27 21.02 27.01 20.29 27 19.56C28.52 19.395 30.04 19.215 31.56 19.03C31.755 18.995 31.9 18.9 32 18.75V18.25C31.95 18.205 31.91 18.155 31.875 18.09C31.585 18.045 31.345 17.91 31.155 17.685C30.59 16.54 30.405 15.33 30.595 14.06C30.66 13.32 30.92 12.665 31.375 12.09C31.63 12.05 31.84 11.935 32 11.75V11.25C31.88 11.085 31.715 10.98 31.5 10.935C31.15 10.42 31.005 9.845 31.06 9.215C31.01 8.605 31.155 8.055 31.5 7.56C31.715 7.515 31.88 7.415 32 7.25V6.75C31.88 6.585 31.715 6.48 31.5 6.435C31.15 5.92 31.005 5.345 31.06 4.715C31.01 4.105 31.155 3.555 31.5 3.06C31.7 3.005 31.865 2.9 32 2.75ZM14.125 1.06C14.605 1.065 15.085 1.1 15.56 1.155C19.3 1.58 23.03 2.04 26.75 2.53C24.335 2.82 21.915 3.11 19.5 3.405C19.165 3.445 18.835 3.445 18.5 3.405C14.575 2.955 10.655 2.475 6.75 1.965C9.22 1.675 11.675 1.37 14.125 1.06ZM1.935 2.56C2.55 2.58 3.155 2.655 3.75 2.78C3.645 3.07 3.57 3.375 3.53 3.685C3.475 4.5 3.505 5.315 3.625 6.125C3.1 6.09 2.58 6.04 2.06 5.965C1.785 5.685 1.63 5.34 1.595 4.935C1.47 4.105 1.585 3.31 1.935 2.56ZM2.53 15.935C2.58 16.48 2.695 17.015 2.875 17.53C2.585 17.53 2.29 17.51 2 17.465C1.865 17.395 1.75 17.3 1.655 17.185C1.09 16.04 0.905 14.83 1.095 13.56C1.165 12.815 1.425 12.145 1.875 11.56C2.285 11.545 2.68 11.6 3.06 11.715C2.53 13.075 2.35 14.48 2.53 15.935ZM4.53 16.25C4.59 16.775 4.705 17.285 4.875 17.78C4.625 17.77 4.375 17.75 4.125 17.715C3.835 17.16 3.66 16.565 3.595 15.935C3.39 14.495 3.595 13.12 4.185 11.81C4.485 11.81 4.775 11.855 5.06 11.935C4.53 13.325 4.35 14.765 4.53 16.25ZM12.875 18.75C10.595 18.49 8.325 18.2 6.06 17.875C5.675 16.985 5.51 16.06 5.56 15.09C5.51 14.025 5.715 13.015 6.185 12.06C8.46 12.29 10.73 12.55 13 12.84C12.62 13.815 12.455 14.825 12.5 15.875C12.465 16.85 12.59 17.81 12.875 18.75ZM13 10.125C13.08 9.665 13.11 9.21 13.095 8.75C12.805 8.44 12.49 8.415 12.155 8.685C12.1 8.85 12.055 9.015 12.03 9.185C11.975 10 12.005 10.815 12.125 11.625C8.77 11.265 5.415 10.88 2.06 10.465C1.785 10.185 1.63 9.84 1.595 9.435C1.55 8.955 1.55 8.475 1.595 8C1.66 7.69 1.765 7.4 1.905 7.125C2.005 7.085 2.11 7.065 2.22 7.06C6.27 7.535 10.325 8.015 14.375 8.5C14.135 9.46 14.065 10.44 14.155 11.435C14.17 11.575 14.2 11.71 14.25 11.84C13.955 11.87 13.665 11.85 13.375 11.78C13.15 11.25 13.025 10.7 13 10.125ZM14.53 17.31C14.605 17.88 14.74 18.43 14.935 18.965C14.71 18.955 14.485 18.935 14.25 18.905C14.035 18.615 13.88 18.295 13.78 17.935C13.335 16.225 13.45 14.56 14.125 12.935C14.39 12.985 14.665 13.025 14.935 13.06C14.52 14.445 14.385 15.865 14.53 17.31ZM17.435 19.25C17 19.225 16.56 19.185 16.125 19.125C15.315 17.155 15.29 15.175 16.06 13.185C16.59 13.225 17.115 13.305 17.625 13.435C16.785 15.345 16.725 17.28 17.435 19.25ZM17.685 12.31C16.92 12.21 16.15 12.125 15.375 12.06C15.005 10.895 15.045 9.75 15.5 8.625C16.275 8.695 17.045 8.8 17.81 8.935C17.44 10.045 17.4 11.17 17.685 12.31ZM17.685 7.81C14.105 7.38 10.52 6.965 6.935 6.56C6.835 5.625 6.785 4.69 6.78 3.75C6.75 3.635 6.675 3.56 6.56 3.53C6.15 3.395 5.89 3.53 5.78 3.935C5.75 4.77 5.75 5.605 5.78 6.435C5.445 6.385 5.11 6.325 4.78 6.25C4.42 5.12 4.43 3.995 4.81 2.875C9.15 3.355 13.485 3.88 17.81 4.435C17.44 5.545 17.4 6.67 17.685 7.81ZM25.97 19.875C25.75 19.63 25.55 19.37 25.375 19.09C25.105 18.96 24.845 18.97 24.595 19.125C24.405 19.435 24.22 19.75 24.03 20.06C24 18.685 23.99 17.31 24 15.935C24.615 15.875 25.22 15.795 25.81 15.685H26C26.01 17.08 26 18.475 25.97 19.875ZM27 18.5V15.56C27.705 15.575 27.925 15.26 27.655 14.625C27.37 14.495 27.065 14.465 26.75 14.53C25.395 14.69 24.04 14.855 22.685 15.03C22.225 15.335 22.205 15.67 22.625 16.03C22.75 16.06 22.875 16.07 23 16.06V19C21.73 19.14 20.46 19.285 19.185 19.435C18.95 19.475 18.775 19.395 18.655 19.185C18.205 18.345 18.01 17.45 18.06 16.5C18.01 15.545 18.205 14.65 18.655 13.81C18.75 13.695 18.865 13.6 19 13.53C22.51 13.12 26.01 12.695 29.5 12.25H29.935C29.225 14.215 29.285 16.15 30.125 18.06C29.09 18.25 28.05 18.395 27 18.5ZM19.22 12.435C19.055 12.435 18.93 12.37 18.845 12.25C18.735 12.005 18.65 11.755 18.595 11.5C18.505 10.775 18.57 10.065 18.78 9.375C18.83 9.24 18.905 9.13 19 9.03C22.68 8.6 26.345 8.15 30 7.685H30.185C29.9 8.825 29.945 9.95 30.31 11.06C26.62 11.545 22.92 12.005 19.22 12.435ZM19.22 7.935C19.055 7.935 18.93 7.87 18.845 7.75C18.735 7.505 18.65 7.255 18.595 7C18.505 6.275 18.57 5.565 18.78 4.875C18.83 4.74 18.905 4.63 19 4.53C22.68 4.1 26.345 3.65 30 3.185H30.185C29.9 4.325 29.94 5.45 30.31 6.56C26.62 7.045 22.92 7.505 19.22 7.935Z" fill="#44C5FF"/>
</svg>
