<svg width="32" height="32" viewBox="0 0 32 32" fill="none" xmlns="http://www.w3.org/2000/svg">
<path fill-rule="evenodd" clip-rule="evenodd" d="M30.815 14.28C29.81 14.005 28.79 13.84 27.75 13.78C28.45 11.87 28.56 9.925 28.095 7.94C27.975 7.655 27.755 7.495 27.44 7.47C25.335 7.02 23.29 7.215 21.315 8.065C20.785 4.69 19.16 2.005 16.44 0H15.69C12.97 2.005 11.345 4.69 10.815 8.065C8.84 7.215 6.795 7.015 4.69 7.47C4.375 7.495 4.155 7.655 4.035 7.94C3.565 9.925 3.68 11.87 4.375 13.78C2.94 13.82 1.565 14.13 0.25 14.72C0.145 14.845 0.06 14.98 0 15.125V16.565C0.115 17.615 0.375 18.635 0.785 19.625C2.285 22.845 4.795 24.72 8.315 25.25V26.75C8.055 26.765 7.805 26.815 7.565 26.905C6.735 27.29 6.2 27.925 5.97 28.815C5.795 30.425 6.47 31.48 8 31.97C13.375 32.01 18.75 32.01 24.125 31.97C24.625 31.855 25.065 31.625 25.44 31.28C26.28 30.28 26.415 29.185 25.845 28C25.33 27.21 24.605 26.775 23.66 26.69C23.615 26.23 23.615 25.77 23.66 25.315C28.14 24.555 30.92 21.97 32 17.565V14.815C31.625 14.605 31.23 14.425 30.815 14.28ZM5.19 8.69C7.11 8.345 8.945 8.605 10.69 9.47C10.665 9.73 10.7 9.99 10.785 10.25C11.045 10.575 11.365 10.65 11.75 10.47C11.94 10.315 12.03 10.12 12.035 9.875C12.08 6.465 13.385 3.65 15.94 1.44C16.025 1.43 16.11 1.44 16.19 1.47C18.75 3.67 20.055 6.47 20.095 9.875C20.165 10.46 20.49 10.675 21.065 10.53C21.16 10.44 21.25 10.345 21.345 10.25C21.43 9.99 21.465 9.73 21.44 9.47C23.185 8.605 25.02 8.345 26.94 8.69C27.485 12.455 26.2 15.415 23.095 17.565C22.125 16.03 20.715 15.27 18.875 15.28C19.575 14.37 19.86 13.34 19.72 12.19C19.45 10.035 18.23 8.865 16.065 8.69C13.895 8.865 12.68 10.035 12.41 12.19C12.27 13.34 12.555 14.37 13.25 15.28C11.375 15.205 9.925 15.945 8.91 17.5C5.89 15.33 4.65 12.395 5.19 8.69ZM18.44 12.655C18.4 14.225 17.61 15.11 16.065 15.315C14.52 15.11 13.73 14.225 13.69 12.655C13.735 11.19 14.46 10.305 15.875 10C17.525 10.115 18.38 11 18.44 12.655ZM1.535 17.69C1.37 17.03 1.32 16.36 1.375 15.69C2.215 15.38 3.07 15.19 3.94 15.125C4.295 15.15 4.65 15.18 5 15.22C5.85 16.695 6.995 17.88 8.44 18.78C8.395 18.89 8.36 19.005 8.345 19.125C8.315 20.73 8.305 22.335 8.315 23.94C4.765 23.25 2.505 21.17 1.535 17.69ZM15.47 28.44C15.405 28.98 15.365 29.52 15.345 30.065C15.23 30.345 15.035 30.545 14.75 30.655C12.565 30.7 10.375 30.7 8.19 30.655C7.17 30.115 6.98 29.365 7.625 28.405C7.89 28.19 8.18 28.055 8.5 28C10.88 27.98 13.255 28 15.625 28.065C15.56 28.18 15.505 28.305 15.47 28.44ZM12.125 26.69C12.14 24.5 12.125 22.315 12.095 20.125C11.86 19.67 11.515 19.555 11.065 19.78C10.94 19.865 10.87 19.98 10.845 20.125C10.815 22.315 10.805 24.5 10.815 26.69H9.625C9.6 24.125 9.625 21.56 9.72 19C10.12 17.695 10.985 16.9 12.315 16.625C14.75 16.615 17.19 16.625 19.625 16.655C21.04 16.945 21.925 17.79 22.285 19.19C22.315 21.69 22.325 24.19 22.315 26.69H21.125C21.14 25.355 21.125 24.02 21.095 22.69C20.725 22.22 20.33 22.2 19.91 22.625C19.89 22.71 19.865 22.795 19.845 22.875C19.815 24.145 19.805 25.415 19.815 26.69H12.125ZM23.94 28.095C24.87 28.515 25.11 29.195 24.66 30.125C24.47 30.375 24.23 30.55 23.94 30.655C21.46 30.7 18.98 30.7 16.5 30.655C16.555 30.545 16.605 30.43 16.66 30.315C16.725 29.775 16.765 29.23 16.785 28.69C16.945 28.305 17.23 28.075 17.625 28C19.735 27.97 21.84 28.005 23.94 28.095ZM26.625 22.97C25.69 23.485 24.69 23.81 23.625 23.94C23.645 22.27 23.625 20.605 23.565 18.94C24.075 18.525 24.595 18.12 25.125 17.72C25.93 16.99 26.595 16.155 27.125 15.22C27.35 15.21 27.555 15.175 27.75 15.125C28.785 15.14 29.785 15.325 30.75 15.69C30.73 18.89 29.355 21.315 26.625 22.97Z" fill="#44C5FF"/>
</svg>
