<svg width="114" height="114" viewBox="0 0 114 114" fill="none" xmlns="http://www.w3.org/2000/svg">
<path fill-rule="evenodd" clip-rule="evenodd" d="M113.778 44.2133V12.6578C112 8.08889 108.782 6.61333 104.107 8.21333C102.08 4.08889 98.8978 2.82667 94.56 4.44444C93.7778 2.18667 92.2667 0.711111 89.9911 0H86.4356C84.8711 0.604444 83.5378 1.58222 82.4356 2.88C81.9556 2.57778 81.4222 2.31111 80.8889 2.11556C77.3867 1.20889 74.72 2.27556 72.8889 5.33333C66.4533 5.58222 60 5.63556 53.5467 5.44C50.4533 3.55556 47.3422 1.74222 44.2133 0H12.6578C8.08889 1.77778 6.61333 4.99555 8.21333 9.67111C4.08889 11.68 2.82667 14.88 4.44444 19.2178C2.18667 20 0.711111 21.5111 0 23.7689V27.3244C0.604444 28.9067 1.58222 30.24 2.88 31.3244C2.63111 31.8578 2.36444 32.3733 2.11556 32.8889C1.20889 36.3733 2.29333 39.04 5.33333 40.8889C5.6 47.3244 5.63556 53.7778 5.44 60.2133C3.55556 63.3067 1.74222 66.4178 0 69.5467V101.102C1.77778 105.689 4.99555 107.164 9.67111 105.547C11.68 109.689 14.88 110.951 19.2178 109.333C20 111.591 21.5111 113.067 23.7689 113.778H27.3244C28.9067 113.156 30.24 112.196 31.3244 110.88C31.8578 111.147 32.3733 111.413 32.8889 111.662C36.3911 112.569 39.0578 111.484 40.8889 108.444C47.3244 108.178 53.7778 108.142 60.2133 108.338C63.3244 110.204 66.4356 112.018 69.5467 113.778H101.102C105.689 112 107.164 108.782 105.547 104.107C109.689 102.08 110.951 98.8978 109.333 94.56C111.591 93.7778 113.067 92.2489 113.778 89.9911V86.4356C113.156 84.8711 112.196 83.5378 110.88 82.4356C111.147 81.92 111.413 81.4044 111.662 80.8889C112.569 77.3867 111.484 74.72 108.444 72.8889C108.178 66.4356 108.142 60 108.338 53.5467C110.204 50.4533 112.036 47.3422 113.778 44.2133ZM4.33778 24.2133C4.74667 23.6267 5.29778 23.2178 5.99111 23.0044C10.5244 22.9156 15.04 22.8444 19.5556 22.7733C20.8 22.2578 21.2089 21.3333 20.7822 20C20.5867 19.52 20.2667 19.1822 19.7689 19.0044C16.4444 18.9156 13.1022 18.8444 9.77778 18.7733C7.71556 17.8667 7.23555 16.4267 8.33778 14.4356C8.83555 14.0089 9.38667 13.6711 9.99111 13.44C14.5244 13.3689 19.04 13.2978 23.5556 13.2267C24.5867 12.5689 24.9244 11.6444 24.5511 10.4356C24.3022 9.92 23.8933 9.6 23.3244 9.44C19.8222 9.44 16.3556 9.28 12.8889 8.99556C11.0044 7.14667 11.1644 5.47556 13.3333 4C23.3244 3.96444 33.3333 4 43.3244 4.10667C45.8133 5.52889 48.2667 7.02222 50.6667 8.55111C51.36 8.97778 52.1067 9.26222 52.8889 9.44C59.2533 9.54667 65.6356 9.58222 72 9.54667C72.0356 15.04 72 20.5156 71.8933 25.9911C70.5067 24.8356 69.0667 23.7689 67.5556 22.7733C63.0933 21.3867 60.16 22.9156 58.7733 27.3244C58.6311 28.3022 58.6667 29.2622 58.88 30.2222C56.4444 30.1867 53.9911 30.2222 51.5556 30.3289C50.9511 30.5067 50.3467 30.7378 49.7778 31.0044C43.04 37.5822 36.3022 44.1778 29.5467 50.7733C28.1244 51.3422 27.04 50.9333 26.3289 49.5467C26.1867 49.1022 26.1867 48.6578 26.3289 48.2133C28.1778 45.7067 30.0978 43.2711 32.1067 40.8889C32.5333 39.8578 32.3556 38.9333 31.5556 38.1156C23.6444 37.8133 15.7156 37.6711 7.76889 37.6711C5.92 36.7644 5.44 35.3956 6.32889 33.5467C6.66667 33.1378 7.07556 32.8 7.55556 32.5511C11.4133 32.48 15.2533 32.4089 19.1111 32.3378C20.7822 31.9822 21.3333 30.9867 20.7822 29.3333C20.5156 29.0667 20.2667 28.8178 20 28.5511C15.6267 28.48 11.2533 28.4089 6.88 28.3378C4.42667 27.9644 3.57333 26.5956 4.33778 24.2133ZM61.9911 34.3289C67.8222 40.3022 73.6356 46.2578 79.4489 52.2133C79.5911 55.4844 79.5911 58.7378 79.4489 61.9911C73.4756 67.8044 67.52 73.6356 61.5467 79.4489C58.2933 79.5911 55.04 79.5911 51.7689 79.4489C45.9556 73.4756 40.1422 67.52 34.3289 61.5467C34.1867 58.2933 34.1867 55.04 34.3289 51.7689C40.3378 45.9556 46.3111 40.1067 52.2133 34.2222C55.4844 34.1867 58.7378 34.2222 61.9911 34.3289ZM38.1156 82.2222C37.8133 90.1333 37.6711 98.0622 37.6711 105.991C36.0711 108.533 34.3644 108.604 32.5511 106.222C32.48 102.364 32.4089 98.5244 32.3378 94.6667C31.9822 92.9956 30.9867 92.4267 29.3333 92.9956L28.5511 93.7778C28.48 98.1511 28.4089 102.524 28.3378 106.88C28.0178 109.031 26.7911 109.956 24.6578 109.671C24.0711 109.387 23.5911 108.978 23.2178 108.444C22.9333 103.716 22.7911 98.9689 22.7733 94.2222C22.2578 92.9778 21.3333 92.5689 20 92.9956C19.52 93.1911 19.1822 93.5111 19.0044 93.9911C18.9333 97.3333 18.8444 100.658 18.7733 104C17.8667 106.044 16.4267 106.542 14.4356 105.44C14.0089 104.942 13.6889 104.391 13.44 103.769C13.3689 99.2533 13.2978 94.7378 13.2267 90.2222C12.5867 89.1911 11.6444 88.8533 10.4356 89.2267C9.93778 89.4578 9.6 89.8667 9.44 90.4356C9.44 93.9378 9.28 97.4222 8.99556 100.889C7.18222 102.773 5.56444 102.631 4.10667 100.444C3.96444 90.4356 3.96444 80.4444 4.10667 70.4356C5.52889 67.9644 7.02222 65.5111 8.55111 63.1111C8.97778 62.4178 9.28 61.6711 9.44 60.8889C9.54667 54.5244 9.6 48.1422 9.54667 41.7778C15.04 41.7422 20.5156 41.7778 25.9911 41.8844C24.4089 43.4667 23.2 45.28 22.3289 47.3244C21.9556 52.9778 24.5867 55.5022 30.2222 54.88C30.1867 57.3333 30.2222 59.7689 30.3289 62.2222C30.5067 62.8267 30.7378 63.4133 31.0044 64C37.6 70.7378 44.1778 77.4756 50.7733 84.2133C51.3422 85.6533 50.9333 86.72 49.5467 87.4489C49.1022 87.5911 48.6578 87.5911 48.2133 87.4489C45.7067 85.6 43.2711 83.68 40.8889 81.6711C39.84 81.1556 38.9156 81.3511 38.1156 82.2222ZM109.44 89.5467C109.031 90.1511 108.48 90.56 107.769 90.7733C103.253 90.8444 98.7378 90.9156 94.2222 91.0044C92.9778 91.52 92.5689 92.4444 92.9956 93.7778C93.1911 94.2578 93.5111 94.5956 93.9911 94.7733C97.3333 94.8444 100.658 94.9156 104 95.0044C106.062 95.9111 106.542 97.3511 105.44 99.3244C104.942 99.7511 104.391 100.089 103.769 100.338C99.2533 100.409 94.7378 100.48 90.2222 100.551C89.1911 101.191 88.8533 102.116 89.2267 103.324C89.4756 103.84 89.8667 104.178 90.4356 104.338C93.9378 104.338 97.4222 104.48 100.889 104.782C102.667 106.329 102.667 107.893 100.889 109.44C90.7556 109.813 80.6044 109.884 70.4356 109.671C67.9644 108.231 65.5111 106.756 63.1111 105.227C62.4178 104.8 61.6711 104.498 60.8889 104.338C54.5244 104.213 48.1422 104.178 41.7778 104.213C41.7422 98.7378 41.7778 93.2622 41.8844 87.7689C43.2711 88.9422 44.7111 90.0089 46.2222 91.0044C50.6844 92.3733 53.6178 90.8622 55.0044 86.4356C55.1467 85.4756 55.0933 84.5156 54.88 83.5556C57.3333 83.5911 59.7867 83.5556 62.2222 83.4489C63.1111 83.2356 63.9289 82.88 64.6578 82.3289C71.2533 75.5556 77.9911 68.9956 84.8889 62.6667C86.7378 62.7733 87.5911 63.7333 87.4489 65.5467C85.6 68.0533 83.68 70.5067 81.6711 72.8889C81.1556 74.2578 81.5644 75.2533 82.88 75.8933C90.5956 75.9644 98.2933 76.0356 105.991 76.1067C107.858 77.0133 108.338 78.3822 107.449 80.2133C107.093 80.64 106.702 80.9778 106.222 81.2267C102.364 81.2978 98.5244 81.3689 94.6667 81.44C92.9956 81.7956 92.4444 82.7911 92.9956 84.4444C93.2622 84.6933 93.5111 84.96 93.7778 85.2267C98.1511 85.2978 102.524 85.3689 106.88 85.44C109.351 85.8133 110.204 87.1822 109.44 89.5467ZM105.227 50.6667C104.8 51.36 104.498 52.0889 104.338 52.8889C104.213 59.2533 104.178 65.6178 104.213 72C98.7378 72.0356 93.2622 72 87.7689 71.8933C89.1022 70.4178 90.24 68.8178 91.2178 67.1111C92.1778 62.2578 90.2044 59.4489 85.3333 58.6667C84.7467 58.8267 84.16 58.9156 83.5556 58.88C83.5911 56.4444 83.5556 53.9911 83.4489 51.5556C83.2356 50.6489 82.88 49.8489 82.3289 49.1022C75.8045 42.6667 69.3689 36.1422 63.0044 29.5467C62.4356 27.3778 63.2889 26.2933 65.5467 26.3289C68.0711 28.1778 70.5067 30.0978 72.8889 32.1067C73.7244 32.3022 74.5422 32.2133 75.3244 31.8933C75.5378 31.5733 75.7333 31.2356 75.8933 30.88C75.9644 23.1822 76.0356 15.4844 76.1067 7.76889C77.4578 5.44 79.0933 5.22667 80.9956 7.11111C81.2267 11.3956 81.4578 15.6978 81.6711 20C82.8444 21.1911 84.0356 21.1911 85.2267 20C85.2978 15.6267 85.3689 11.2533 85.44 6.88C85.5289 5.52889 86.1511 4.56889 87.3244 4C89.0489 3.73333 90.2044 4.39111 90.7733 5.99111C90.8444 10.5244 90.9333 15.04 91.0044 19.5556C91.52 20.8 92.4444 21.2089 93.7778 20.7822C94.2578 20.5867 94.5956 20.2489 94.7733 19.7689C94.8444 16.4444 94.9333 13.1022 95.0044 9.77778C95.9111 7.71556 97.3511 7.23555 99.3244 8.33778C99.7689 8.83555 100.089 9.38667 100.338 9.99111C100.409 14.5244 100.48 19.04 100.551 23.5556C101.191 24.5867 102.116 24.9244 103.324 24.5511C103.84 24.3022 104.178 23.8933 104.338 23.3244C104.338 19.8222 104.48 16.3556 104.782 12.8889C106.596 11.0044 108.213 11.1467 109.671 13.3333C109.813 23.3244 109.813 33.3333 109.671 43.3244C108.249 45.8133 106.756 48.2489 105.227 50.6667Z" fill="#44C5FF"/>
</svg>
