<svg width="114" height="114" viewBox="0 0 114 114" fill="none" xmlns="http://www.w3.org/2000/svg">
<path fill-rule="evenodd" clip-rule="evenodd" d="M108.658 54.7733C106.969 54.6667 105.262 54.6311 103.556 54.6667C103.698 51.0756 101.956 49.3689 98.3289 49.5644C94.72 49.3511 92.9778 51.0578 93.1022 54.6667H84.2133C84.6222 51.9822 83.5022 50.2756 80.8889 49.5644C80.7111 33.3333 80.5867 17.12 80.5511 0.888889C80.4089 0.48 80.1422 0.177778 79.7689 0H0.888889C0.515556 0.231111 0.213333 0.515556 0 0.888889V112.889C0.213333 113.262 0.515556 113.564 0.888889 113.778H108.889C111.236 112.978 112.871 111.431 113.778 109.12V59.3422C112.889 56.9244 111.182 55.4133 108.658 54.7733ZM97.1022 53.3333H99.7689V60.8889H96.8889C96.8178 58.3467 96.8889 55.84 97.1022 53.3333ZM84.2133 58.4533H93.1022C92.8356 63.8222 95.3422 65.8667 100.658 64.5511C102.08 64.2311 103.004 63.3956 103.449 62.0089C103.556 60.8178 103.591 59.6267 103.556 58.4533C105.031 58.4178 106.524 58.4533 108 58.56C108.676 58.7911 109.227 59.2 109.671 59.7867C109.991 62.2756 110.098 64.8 109.991 67.3422H48.8889C48.8533 65.0311 48.8889 62.7378 48.9956 60.4444C49.3689 59.52 50.0089 58.8444 50.88 58.4533H54.4356C54.4 59.6267 54.4356 60.8178 54.56 62.0089C55.5556 64.16 57.2622 65.0489 59.6622 64.6756C63.8222 64.6756 65.5644 62.6133 64.8889 58.4533H73.7778C73.1022 62.6133 74.8444 64.6933 79.0044 64.6756C83.1644 64.6756 84.9067 62.6133 84.2133 58.4533ZM58.2222 60.8889V53.3333C59.1644 53.2622 60.0889 53.3333 60.9956 53.5644C61.1022 56 61.1556 58.4533 61.1022 60.8889H58.2222ZM77.5467 53.3333H80.4444V60.8889H77.5467V53.3333ZM45.2267 108.444C45.3156 109.031 45.5111 109.6 45.7778 110.116C31.7689 110.222 17.7778 110.258 3.76889 110.222V3.55556H76.8889V49.7778C75.3778 50.0622 74.3822 50.9511 73.8844 52.4444C73.7778 53.1911 73.7422 53.92 73.7778 54.6667H64.8889C65.0311 51.0578 63.2889 49.3689 59.6622 49.5644C56.0356 49.3689 54.2933 51.0756 54.4356 54.6667C51.2178 54.08 48.5156 54.9689 46.3289 57.3333C45.7422 58.1333 45.3689 59.0222 45.2267 60C45.0667 76.1422 45.0667 92.3022 45.2267 108.444ZM109.884 108.444C109.244 109.458 108.32 110.009 107.111 110.116C88.7467 110.258 70.3644 110.258 52 110.116C50.5422 110.044 49.5467 109.333 48.9956 108C48.8889 95.7156 48.8533 83.4133 48.8889 71.1111H109.991C110.044 83.5556 109.991 96 109.884 108.444Z" fill="#44C5FF"/>
<path fill-rule="evenodd" clip-rule="evenodd" d="M38.3289 18.6667C37.2267 19.5556 36.1956 20.5156 35.2178 21.5644C35.1467 25.2622 35.0756 28.96 35.0044 32.6756C34.9156 32.8711 34.8089 33.0667 34.6667 33.2267C30.7911 33.4756 26.9156 33.6 23.0044 33.5644C19.0933 33.6 15.2 33.4756 11.3244 33.2267C11.2 33.0667 11.0756 32.8711 11.0044 32.6756C10.8444 25.7067 10.8444 18.7378 11.0044 11.7867C11.1467 11.3778 11.4133 11.0756 11.7689 10.8978C19.2533 10.8622 26.7378 10.8978 34.2222 11.0044C34.4178 11.0933 34.6133 11.2 34.7733 11.3422C35.2533 12.2844 35.2 13.2089 34.6667 14.1156C34.3111 14.3111 33.9378 14.4533 33.5467 14.56C27.2533 14.6667 20.96 14.7022 14.6667 14.6667V30.0089H31.3244C31.3778 28.3733 31.3244 26.7378 31.2178 25.12C30.2222 25.8844 29.2978 26.7378 28.4444 27.6622C27.68 28.2844 26.8622 28.3556 25.9911 27.8933C24.48 26.3644 22.9689 24.8533 21.44 23.3422C20.8178 21.0844 21.6711 20.16 24 20.5511C24.9956 21.6 26.0444 22.5956 27.1111 23.5556C30.0978 20.9778 33.0667 18.3467 36 15.6622C38.4356 15.3244 39.2178 16.32 38.3289 18.6667Z" fill="#44C5FF"/>
<path fill-rule="evenodd" clip-rule="evenodd" d="M71.1111 14.3289C70.8089 14.4178 70.5244 14.4889 70.2222 14.56C62.4356 14.7022 54.6667 14.7022 46.88 14.56C45.4756 14.2756 44.9067 13.4222 45.2267 12C45.44 11.5911 45.7067 11.2356 45.9911 10.8978C54.3644 10.8622 62.7378 10.8978 71.1111 11.0044C72.3022 12.1067 72.3022 13.2267 71.1111 14.3289Z" fill="#44C5FF"/>
<path fill-rule="evenodd" clip-rule="evenodd" d="M71.1111 23.8933C62.7378 24.0356 54.3644 24.0356 45.9911 23.8933C44.8178 22.7378 44.8178 21.6 45.9911 20.4444C54.3644 20.4089 62.7378 20.4444 71.1111 20.5511C72.3022 21.6711 72.3022 22.7733 71.1111 23.8933Z" fill="#44C5FF"/>
<path fill-rule="evenodd" clip-rule="evenodd" d="M38.3289 53.3333C37.2267 54.2222 36.1956 55.1822 35.2178 56.2311C35.1467 59.9289 35.0756 63.6267 35.0044 67.3422C34.9156 67.5378 34.8089 67.7333 34.6667 67.8933C30.7911 68.1422 26.9156 68.2667 23.0044 68.2311C19.0933 68.2667 15.2 68.1422 11.3244 67.8933C11.2 67.7333 11.0756 67.5378 11.0044 67.3422C10.8444 60.3733 10.8444 53.4044 11.0044 46.4533C11.1467 46.0444 11.4133 45.7422 11.7689 45.5644C19.2533 45.5289 26.7378 45.5644 34.2222 45.6711C34.4178 45.76 34.6133 45.8667 34.7733 46.0089C35.2533 46.9511 35.2 47.8756 34.6667 48.7822C34.3111 48.9778 33.9378 49.12 33.5467 49.2267C27.2533 49.3333 20.96 49.3689 14.6667 49.3333V64.4444H31.3244C31.3778 62.8978 31.3244 61.3333 31.2178 59.7867C30.2222 60.5511 29.2978 61.4044 28.4444 62.3289C27.68 62.9511 26.8622 63.0222 25.9911 62.56C24.48 61.0311 22.9689 59.52 21.44 58.0089C20.8178 55.7511 21.6711 54.8267 24 55.2178C24.9956 56.2667 26.0444 57.2622 27.1111 58.2222C30.0978 55.6444 33.0667 53.0133 36 50.3289C38.4356 49.9911 39.2178 50.9867 38.3289 53.3333Z" fill="#44C5FF"/>
<path fill-rule="evenodd" clip-rule="evenodd" d="M68.7822 77.3333C68.5156 76.9956 68.1778 76.7289 67.7689 76.5511C64.3022 76.4444 60.8178 76.4089 57.3333 76.4444C56.7289 76.8 56.32 77.3156 56.1067 78.0089C55.8933 81.4933 55.9644 84.9778 56.3378 88.4444C56.6044 88.8 56.9422 89.0489 57.3333 89.2267C60.9778 89.44 64.6044 89.3689 68.2133 88.9956C68.48 88.8 68.6756 88.5511 68.7822 88.2311C68.9244 84.5867 68.9244 80.96 68.7822 77.3333ZM65.1022 85.5644H59.7689V80.2311H65.1022V85.5644Z" fill="#44C5FF"/>
<path fill-rule="evenodd" clip-rule="evenodd" d="M85.44 77.12C85.2444 76.8533 84.9778 76.6578 84.6578 76.5511C81.1022 76.4444 77.5467 76.4089 73.9911 76.4444C73.4578 76.7289 73.1378 77.1733 72.9956 77.7778C72.8533 81.1911 72.8533 84.5867 72.9956 88C73.1911 88.64 73.6 89.0311 74.2222 89.2267C77.8667 89.44 81.4933 89.3689 85.1022 88.9956C85.3689 88.8 85.5644 88.5511 85.6711 88.2311C85.8844 84.4978 85.8133 80.8 85.44 77.12ZM81.9911 85.5644H76.6578V80.2311H81.9911V85.5644Z" fill="#44C5FF"/>
<path fill-rule="evenodd" clip-rule="evenodd" d="M102.56 77.12C102.347 76.8533 102.098 76.6578 101.778 76.5511C98.2222 76.4444 94.6667 76.4089 91.1111 76.4444C90.6667 76.7822 90.3289 77.2267 90.1155 77.7778C89.9555 81.1911 89.9555 84.5867 90.1155 88C90.2933 88.64 90.7022 89.0311 91.3244 89.2267C94.9867 89.44 98.6133 89.3689 102.222 88.9956C102.489 88.8 102.667 88.5511 102.773 88.2311C102.987 84.4978 102.916 80.8 102.56 77.12ZM99.1111 85.5644H93.7778V80.2311H99.1111V85.5644Z" fill="#44C5FF"/>
<path fill-rule="evenodd" clip-rule="evenodd" d="M38.3289 88C37.2267 88.8889 36.1956 89.8489 35.2178 90.8978C35.1467 94.5956 35.0756 98.2933 35.0044 102.009C34.9156 102.204 34.8089 102.4 34.6667 102.56C30.7911 102.809 26.9156 102.933 23.0044 102.898C19.0933 102.933 15.2 102.809 11.3244 102.56C11.2 102.4 11.0756 102.204 11.0044 102.009C10.8444 95.04 10.8444 88.0711 11.0044 81.12C11.1467 80.7111 11.4133 80.4089 11.7689 80.2311C19.2533 80.1956 26.7378 80.2311 34.2222 80.3378C34.4178 80.4267 34.6133 80.5333 34.7733 80.6756C35.2533 81.6178 35.2 82.5422 34.6667 83.4489C34.24 83.6622 33.7956 83.8044 33.3333 83.8933C27.1111 84 20.8889 84.0356 14.6667 84V99.1111H31.3244C31.3778 97.5644 31.3244 96 31.2178 94.4533C30.2222 95.2178 29.2978 96.0711 28.4444 96.9956C27.68 97.6178 26.8622 97.6889 25.9911 97.2267C24.48 95.6978 22.9689 94.1867 21.44 92.6756C20.8178 90.4178 21.6711 89.4933 24 89.8844C24.9956 90.9333 26.0444 91.9289 27.1111 92.8889C30.0978 90.3111 33.0667 87.68 36 84.9956C38.4356 84.6578 39.2178 85.6533 38.3289 88Z" fill="#44C5FF"/>
<path fill-rule="evenodd" clip-rule="evenodd" d="M68.7822 92.8889C68.5156 92.5511 68.1778 92.2844 67.7689 92.1067C64.3022 92 60.8178 91.9644 57.3333 92C56.7289 92.3556 56.32 92.8711 56.1067 93.5644C55.8933 97.0489 55.9644 100.533 56.3378 104C56.6044 104.356 56.9422 104.604 57.3333 104.782C60.9778 104.996 64.6044 104.924 68.2133 104.551C68.4089 104.373 68.5867 104.196 68.7822 104C68.9244 100.302 68.9244 96.5867 68.7822 92.8889ZM65.1022 101.12H59.7689V95.7867H65.1022V101.12Z" fill="#44C5FF"/>
<path fill-rule="evenodd" clip-rule="evenodd" d="M85.44 92.6756C85.2444 92.4089 84.9778 92.2133 84.6578 92.1067C81.1022 92 77.5467 91.9644 73.9911 92C73.4578 92.2844 73.1378 92.7289 72.9956 93.3333C72.8533 96.7467 72.8533 100.142 72.9956 103.556C73.1911 104.196 73.6 104.587 74.2222 104.782C77.8667 104.996 81.4933 104.924 85.1022 104.551C85.3689 104.356 85.5644 104.107 85.6711 103.787C85.8844 100.053 85.8133 96.3556 85.44 92.6756ZM81.9911 101.12H76.6578V95.7867H81.9911V101.12Z" fill="#44C5FF"/>
<path fill-rule="evenodd" clip-rule="evenodd" d="M102.56 92.6756C102.347 92.4089 102.098 92.2133 101.778 92.1067C98.2933 92 94.8089 91.9644 91.3244 92C90.7378 92.2667 90.3289 92.7111 90.1155 93.3333C89.9555 96.7467 89.9555 100.142 90.1155 103.556C90.2933 104.196 90.7022 104.587 91.3244 104.782C94.9867 104.996 98.6133 104.924 102.222 104.551C102.489 104.356 102.667 104.107 102.773 103.787C102.987 100.053 102.916 96.3556 102.56 92.6756ZM99.1111 101.12H93.7778V95.7867H99.1111V101.12Z" fill="#44C5FF"/>
</svg>
