<svg width="114" height="114" viewBox="0 0 114 114" fill="none" xmlns="http://www.w3.org/2000/svg">
<path fill-rule="evenodd" clip-rule="evenodd" d="M113.778 30.2222C113.582 29.7778 113.316 29.3333 112.996 28.8889C109.031 24.9244 105.067 20.9778 101.102 17.0133C99.7511 16.0889 98.2578 15.7867 96.6578 16.1244C94.8267 14.3644 92.9422 12.7111 90.9867 11.1111C90.2044 5.13778 86.8978 1.44 81.1022 0H76.6578C75.0222 0.337778 73.4933 1.01333 72.1067 2.00889C68.6933 1.06667 65.2444 0.391111 61.7778 0H51.7689C45.0844 0.693333 38.6667 2.47111 32.5511 5.33333C31.8933 4.55111 31.1289 3.91111 30.2222 3.44889C29.28 3.27111 28.3911 3.41333 27.5556 3.89333C18.5422 12.8889 9.54667 21.9022 0.551111 30.8978C0.373333 31.3067 0.195556 31.6622 0 32V33.5644C1.01333 34.88 2.11556 36.1422 3.32444 37.3333C1.61778 42.0444 0.497778 46.8622 0 51.7867V62.0089C0.266667 64.1067 0.622222 66.2222 1.10222 68.3378C0.622222 69.3156 0.248889 70.3289 0 71.3422V75.7867C0.391111 77.1556 0.942222 78.4889 1.65333 79.7867C5.08444 84.9244 8.60444 89.9911 12.2133 95.0044C13.12 95.4489 14.08 95.68 15.1111 95.68C25.0844 106.222 37.2978 112.249 51.7689 113.778H56.8889C57.7067 113.369 58.2578 112.693 58.5422 111.787C58.6667 94.3111 58.7022 76.8178 58.6667 59.3422C75.5733 63.8044 92.4978 68.2489 109.44 72.6756C110.738 72.6756 111.627 72.0889 112.107 70.8978C112.871 67.9467 113.44 64.9778 113.778 62.0089V51.7867C113.227 46.7911 112.124 41.9022 110.436 37.12C111.644 35.7689 112.747 34.3644 113.778 32.8889V30.2222ZM29.1022 7.34222C37.6711 15.5733 46.1511 23.9467 54.5422 32.4444C54.7022 32.6044 54.7022 32.7467 54.5422 32.8889C53.92 33.5289 53.28 34.1511 52.6578 34.7911C52.5156 34.9333 52.3556 34.9333 52.2133 34.7911C44.8711 27.3778 37.4756 20.0356 29.9911 12.7822C29.3689 12.6222 28.7822 12.6933 28.2133 13.0133C25.8489 15.3778 23.5022 17.7244 21.1378 20.0889L18.9689 22.2578L13.7956 27.4489L12.3556 28.8889C10.3289 30.9156 8.28444 32.9244 6.22222 34.8978C5.40444 34.2222 4.65778 33.4933 4 32.6756C12.3733 24.2311 20.7289 15.7867 29.1022 7.34222ZM44.8889 12.2311H48.2133C48.2489 15.1111 48.2133 18.0089 48.1067 20.8889C47.0578 19.8578 46.0267 18.8267 44.9956 17.7778C44.8889 15.9289 44.8356 14.08 44.8889 12.2311ZM22.6667 34.56C21.76 34.8089 21.12 35.36 20.7644 36.2311C20.6578 42.5244 20.6222 48.8178 20.6578 55.1111H11.7689C11.7333 48.2311 11.7689 41.3333 11.8756 34.4533C12.6933 33.6533 13.4933 32.8356 14.2933 32.0533L16.32 30.0089L21.4578 24.8C21.4578 24.8 21.4933 24.8 21.5289 24.8C24.0889 22.2044 26.6844 19.6444 29.3156 17.1378C35.2356 22.9511 41.12 28.8 46.9689 34.6844C47.0933 41.5111 47.1289 48.32 47.0933 55.1289H37.9733C38.08 48.7467 37.9733 42.3822 37.6356 36.0178C37.2978 35.3067 36.7289 34.8267 35.9822 34.5778C31.5378 34.4356 27.0933 34.4356 22.6489 34.5778L22.6667 34.56ZM34.4356 38.0089V55.1111H24.2133V38.0089H34.4356ZM6.43556 39.2356C6.91556 38.8267 7.44889 38.5067 8 38.2222C8.21333 43.8222 8.28444 49.4578 8.21333 55.1111H3.55556C3.69778 49.6711 4.65778 44.3733 6.43556 39.2356ZM15.7689 91.2356C15.2533 91.4667 14.7378 91.6089 14.2222 91.68C10.9867 86.9689 7.76889 82.2578 4.55111 77.5644C2.48889 73.0311 3.48444 69.3689 7.55556 66.56C8.44444 66.2044 9.33333 65.8667 10.2222 65.5644C12.1067 65.44 13.8844 65.8489 15.5556 66.7911C17.0311 67.9822 18.3644 69.3156 19.5556 70.7911C20.2133 70.9333 20.8889 70.9333 21.5467 70.7911C26.0267 68.4978 29.76 69.3511 32.7644 73.3333C34.7733 77.5822 33.92 81.1733 30.2222 84.1244C25.3689 86.4356 20.5511 88.8 15.7689 91.2356ZM18.4356 93.9022C23.1289 91.6622 27.8044 89.3689 32.4444 87.0044C37.1378 83.2711 38.5067 78.56 36.5511 72.8889C33.9022 67.6267 29.6533 65.3689 23.7689 66.1156C22.7911 66.3289 21.8667 66.6489 20.9956 67.1111C16.6933 61.8489 11.4667 60.7111 5.33333 63.68C4.85333 63.9289 4.44444 64.2667 4.10667 64.6756C3.68 62.7022 3.50222 60.6933 3.55556 58.6667C20.2844 58.6311 37.0311 58.6667 53.7778 58.7911C48.5689 67.6978 43.36 76.6222 38.2044 85.5644L37.1022 87.5022L33.28 94.1689L32.3556 95.7867L32.1956 96.0711C31.04 98.1689 29.8133 100.213 28.5511 102.222C24.8356 99.9111 21.4578 97.12 18.4356 93.9022ZM31.7689 103.893C33.0311 101.867 34.24 99.7867 35.3422 97.6711L40.0889 89.5644L40.7111 88.4978C45.4578 80.2667 50.2222 72.0178 54.9689 63.7867C55.0933 79.2711 55.1289 94.7556 55.0933 110.222C46.7733 110.027 38.9867 107.911 31.7511 103.893H31.7689ZM50.6667 55.1111C50.5778 49.5644 50.6667 44 50.88 38.4533C52.48 39.2356 53.8133 38.9511 54.88 37.5644C55.1111 43.3778 55.1822 49.2267 55.1111 55.1111H50.6667ZM54.9867 27.7867C53.9556 26.7556 52.9244 25.7067 51.8756 24.6756C51.8044 20.0889 51.7333 15.4844 51.6622 10.8978C51.3956 9.74222 50.7022 9.04889 49.5467 8.78222C47.3067 8.58667 45.0844 8.65778 42.88 9.01333C42.1689 9.35111 41.6889 9.90222 41.44 10.6667C41.3689 11.7867 41.28 12.8889 41.2089 14.0089C39.2533 12.0356 37.28 10.08 35.3244 8.12444C40.7289 5.68889 46.3644 4.17778 52.2133 3.55556H55.1111C55.1467 11.6444 55.1111 19.7156 54.9867 27.7867ZM58.6667 3.55556C62.0622 3.55556 65.3867 4 68.6578 4.88889C66.8622 6.64889 65.2089 8.49778 63.6622 10.4533C63.1467 11.3956 62.7022 12.3556 62.3289 13.3333C62.0089 15.7333 61.6356 18.0978 61.2089 20.4444C60.6756 21.76 59.8578 22.88 58.7733 23.7867C58.6667 17.0489 58.6133 10.3111 58.6667 3.55556ZM58.7733 28.6756C61.0133 26.9333 62.88 24.8711 64.32 22.4533C64.7289 21.5289 65.0133 20.5511 65.2089 19.5556C65.0844 16.9778 65.6 14.5244 66.7733 12.2311C68.8711 9.90222 71.0578 7.64444 73.3333 5.45778C74.4889 4.56889 75.7511 3.94667 77.1022 3.55556C81.8133 3.12889 85.12 5.04889 86.9867 9.33333C87.8222 12.3556 87.3067 15.0933 85.44 17.5644C83.2356 19.8222 80.9778 22.0089 78.6667 24.1244C77.8133 24.6044 76.9244 24.9778 76 25.2267C72.4267 25.0844 69.1733 25.9733 66.2222 27.8933C63.5733 30.5422 61.0844 33.3156 58.7733 36.2311C58.6133 33.7067 58.6133 31.2 58.7733 28.6756ZM62.88 56.6756C61.4756 56.2667 60.0711 55.8933 58.6667 55.5556C58.6133 50.9689 58.6667 46.3822 58.7733 41.7778C61.3689 38.7556 63.9467 35.7156 66.5422 32.6756C67.9644 30.88 69.7778 29.7422 72 29.2267C75.5911 29.3689 78.8444 28.4089 81.7778 26.3467C84.4089 23.84 86.8978 21.2089 89.2089 18.4533C89.8133 17.4756 90.2222 16.4444 90.4356 15.3422C91.7511 16.2844 92.9422 17.4044 93.9911 18.6667C89.92 22.7911 85.8844 26.9333 81.8844 31.1111C81.2622 32.0711 80.8178 33.12 80.5511 34.2222C80.4267 36.3733 80.2844 38.5244 80.1067 40.6756C79.7867 41.3689 79.4133 42.0444 78.9867 42.6667C78.4178 43.1822 77.8311 43.6978 77.2622 44.2133L69.1022 51.2356L66.3467 53.6C65.1733 54.5956 64.0178 55.6267 62.88 56.6756ZM110.098 61.7778C109.92 64.16 109.511 66.5067 108.889 68.7822C98.7733 66.3111 88.6933 63.6444 78.6667 60.7822C81.6178 57.3156 84.6578 53.9022 87.7689 50.56C88.4089 50.2044 89.0844 49.9022 89.7778 49.6711C91.6267 49.6 93.4756 49.5289 95.3244 49.4578C97.0844 49.12 98.6489 48.3911 100 47.2356C102.489 44.7822 104.924 42.2933 107.324 39.7867C108.871 43.7689 109.796 47.9111 110.098 52.2311C110.258 55.4133 110.258 58.5956 110.098 61.7778ZM110.098 32C105.6 36.6578 100.978 41.1378 96.2133 45.4578C95.7689 45.6 95.3244 45.7422 94.88 45.9022C89.9378 45.1022 85.9022 46.6133 82.7733 50.4533C80.1422 53.5289 77.5111 56.6044 74.88 59.68C72.32 59.2178 69.7956 58.5422 67.3244 57.6711C68.1067 56.96 68.9067 56.2489 69.6889 55.5378L79.3244 47.2C80.1778 46.4178 81.0311 45.6533 81.8844 44.8889C83.7689 42.3644 84.4089 39.5556 83.7689 36.4444C83.9289 35.1822 84.3378 33.9911 84.9956 32.8889L98.3289 19.5556C99.3245 20.1956 100.071 21.0133 100.551 22.0089C96.8356 25.7067 93.1378 29.4222 89.44 33.12C89.1556 35.36 90.08 36.1422 92.2133 35.4489C95.8756 31.7511 99.5911 28.0711 103.324 24.4444C104.267 25.12 104.96 25.9378 105.44 26.8978C101.724 30.5956 98.0267 34.3111 94.3289 38.0089C94.0267 40.2311 94.9511 41.0133 97.1022 40.3378C100.764 36.64 104.48 32.96 108.213 29.3333C108.871 29.8844 109.511 30.4889 110.098 31.1111C110.258 31.4133 110.258 31.7156 110.098 32Z" fill="#44C5FF"/>
<path fill-rule="evenodd" clip-rule="evenodd" d="M102.098 81.3333C97.1911 73.9378 90.2756 70.4533 81.3333 70.8978C80.16 71.1289 78.9867 71.3955 77.7778 71.68C68 75.04 62.8089 81.8844 62.2222 92.2311C62.8267 102.827 68.16 109.76 78.2222 113.013C87.4844 114.933 95.0756 112.231 100.996 104.889C105.991 97.2622 106.364 89.4222 102.098 81.3333ZM89.7778 109.013C80.3556 111.644 73.0667 108.871 67.8756 100.676C64.1422 92.2667 65.5822 84.9067 72.2133 78.56C74.9867 76.3911 78.0978 75.0222 81.5467 74.4533C92.0533 74.2578 98.5956 79.2178 101.209 89.3333C102.116 98.6667 98.3111 105.227 89.7778 109.013Z" fill="#44C5FF"/>
<path fill-rule="evenodd" clip-rule="evenodd" d="M89.44 100.676C88.3911 102.098 87.0222 102.987 85.3333 103.342C85.6356 106.027 84.5689 106.916 82.0978 106.009C81.8133 105.227 81.6889 104.409 81.7778 103.556C80.0533 103.467 78.4889 102.916 77.1022 101.902C76.1956 100.231 76.64 99.1644 78.4356 98.6667C79.5911 99.3956 80.8533 99.8756 82.2222 100.124C85.3867 100.356 86.9689 98.9156 86.9867 95.7867C86.7911 95.2 86.4533 94.72 85.9911 94.3467C83.68 93.4756 81.4578 92.4444 79.3244 91.2355C76.8 88.8178 76.48 86.1156 78.3289 83.1111C79.1289 81.9733 80.1956 81.2444 81.5467 80.8889C81.5111 79.68 81.9556 78.7022 82.88 78.0089C84.8711 77.92 85.6889 78.8978 85.3333 80.8889C86.7556 81.0489 87.9822 81.6356 88.9956 82.6667C89.4756 84.8533 88.6222 85.7067 86.4356 85.2267C85.1022 84.1956 83.6089 83.9644 81.9911 84.5689C80.1422 86.0978 80.2133 87.5022 82.2222 88.7822C84.2489 89.6356 86.24 90.5244 88.2133 91.4489C90.9867 94.1867 91.3956 97.2622 89.44 100.676Z" fill="#44C5FF"/>
</svg>
