<svg width="114" height="114" viewBox="0 0 114 114" fill="none" xmlns="http://www.w3.org/2000/svg">
<path fill-rule="evenodd" clip-rule="evenodd" d="M97.0613 5.61835C96.3324 2.75613 94.5369 0.960577 91.6746 0.249466C85.1324 -0.248312 82.128 2.75613 82.6257 9.29835C82.8391 10.4006 83.3369 11.3428 84.1013 12.1606C82.768 14.0984 81.4346 16.0539 80.1013 17.9917C79.8524 18.3117 79.5502 18.5428 79.1769 18.685C76.3146 17.9384 73.7902 18.5428 71.6213 20.5161C66.6613 17.6895 61.6835 14.8628 56.7235 12.0361C56.9369 10.1339 56.8657 8.21391 56.4924 6.31169C54.4657 1.51169 50.8391 -0.550534 45.6124 0.125022C42.5724 0.907244 40.4035 2.73835 39.088 5.61835C37.3813 11.1117 39.0169 15.2361 44.0124 17.9917C42.5369 24.8539 41.168 31.7339 39.888 38.6139C38.928 38.5961 38.0035 38.7917 37.1324 39.2006C36.2613 39.6806 35.4613 40.2495 34.7324 40.9072C31.6924 39.4495 28.688 37.9739 25.6835 36.445C25.6835 34.5961 25.648 32.7295 25.5591 30.8272C24.0657 25.245 20.4391 22.3472 14.6791 22.1161C9.34575 22.2939 5.80797 24.8895 4.03019 29.9206C2.6613 35.9295 4.68797 40.3917 10.0924 43.325C15.4613 45.2272 20.0124 44.0539 23.728 39.7695C26.7324 41.3161 29.7369 42.845 32.7769 44.3561C32.8124 45.7961 32.9902 47.2361 33.3457 48.7117C34.1635 50.7206 35.568 52.1428 37.5946 52.9428C41.2924 54.0984 44.3146 53.1561 46.6435 50.0806C48.7591 45.6717 47.8524 42.0806 43.888 39.3072C45.0257 32.3561 46.3591 25.4584 47.9057 18.5784C50.5902 18.4717 52.848 17.4406 54.6613 15.485C59.568 18.2939 64.4924 21.085 69.4346 23.8406C69.6302 25.085 69.7369 26.3472 69.7902 27.6272C70.5191 30.4895 72.3146 32.285 75.1769 33.0139C79.7457 33.7606 82.768 31.965 84.2257 27.6272C84.7413 25.1917 84.2435 23.0228 82.7324 21.085C84.0657 19.1472 85.3991 17.1917 86.7502 15.2539C86.9813 14.9339 87.2835 14.7028 87.6569 14.5606C88.9902 14.8095 90.3235 14.845 91.6746 14.685C95.9413 13.1561 97.7369 10.1339 97.0613 5.61835ZM21.6657 34.7206C20.2791 38.9872 17.328 40.7828 12.848 40.1072C8.7413 38.5961 7.01686 35.645 7.69241 31.2895C8.79463 28.0184 11.0524 26.1695 14.448 25.7961C19.7813 26.4184 22.1813 29.3872 21.6657 34.7206ZM43.2124 48.0184C41.7724 49.5117 40.1369 49.7784 38.288 48.8184C36.7946 47.3784 36.528 45.7428 37.4702 43.8939C37.968 43.2895 38.5369 42.8272 39.1946 42.525C43.1591 42.4539 44.4924 44.3028 43.2124 48.0184ZM49.0435 14.4539C44.3502 14.7917 42.1813 12.6228 42.5191 7.91169C43.2124 6.04502 44.4746 4.74724 46.3057 4.01835C49.5235 3.59169 51.7102 4.88947 52.8302 7.91169C53.3635 11.1472 52.1191 13.3339 49.0435 14.4539ZM79.8702 27.8584C78.4302 29.3517 76.7946 29.6184 74.9457 28.6584C73.4524 27.2184 73.1857 25.5828 74.1457 23.7339C74.6257 23.1295 75.1946 22.6672 75.8524 22.3472C79.8169 22.2939 81.1502 24.125 79.8702 27.8584ZM92.7057 9.52947C91.2657 11.005 89.6302 11.2717 87.7813 10.3295C86.288 8.88947 86.0213 7.25391 86.9635 5.40502C87.4613 4.80058 88.0302 4.33835 88.688 4.01835C92.6524 3.96502 93.9857 5.79613 92.7057 9.52947Z" fill="#44C5FF"/>
<path fill-rule="evenodd" clip-rule="evenodd" d="M113.559 26.7028C113.435 26.2939 113.168 26.0272 112.741 25.9028C112.137 25.7961 111.532 25.7606 110.91 25.7961C108.226 28.0717 105.541 30.4006 102.892 32.7828C96.7591 37.1739 89.8791 39.165 82.2702 38.7384C79.7635 39.0584 77.3102 39.6628 74.9457 40.5695C64.7946 44.6761 58.8035 52.125 56.9546 62.9161C56.048 68.1606 57.2391 72.8717 60.5102 76.9961C58.5546 79.325 56.5458 81.5828 54.4302 83.7695C52.848 83.0228 51.2835 82.2584 49.7369 81.4761C49.3635 77.405 48.1724 73.5828 46.1813 70.0095C41.5769 62.9517 35.1235 58.6495 26.8213 57.0672C20.1369 57.5117 14.2524 55.6095 9.18575 51.3428C7.19463 49.0495 5.20352 46.7561 3.21241 44.4628C2.23463 43.9828 1.29241 44.0184 0.35019 44.5872C-0.0231435 50.7384 -0.0942548 56.925 0.119079 63.1472C0.741301 69.0317 2.43019 74.6139 5.16797 79.8584C8.79463 87.005 14.4124 91.8584 22.0035 94.4184C30.128 96.8361 37.5413 95.5028 44.2435 90.4006C46.5013 91.8584 48.7946 93.2806 51.1057 94.6495C51.3369 95.5028 51.408 96.3739 51.3369 97.2806C48.7235 97.1917 46.128 97.3872 43.5502 97.8495C39.1946 98.845 34.9813 100.303 30.9457 102.205C28.5102 102.561 26.0746 102.863 23.6213 103.129C19.0169 104.356 15.4613 107.005 12.9546 111.023C12.8124 111.645 12.8124 112.249 12.9546 112.854C13.0791 113.281 13.3457 113.547 13.7546 113.672C42.4835 113.814 71.1946 113.814 99.9235 113.672C100.332 113.547 100.599 113.281 100.724 112.854C100.866 112.249 100.866 111.645 100.724 111.023C98.2169 107.005 94.6613 104.356 90.0569 103.129C87.6213 102.863 85.168 102.561 82.7324 102.205C80.4924 101.352 78.2702 100.445 76.0835 99.4495C71.6391 97.9206 67.0524 97.1917 62.3413 97.2806C62.3057 95.6806 62.3413 94.0628 62.448 92.4628C64.9902 89.2095 67.5502 85.9561 70.128 82.7384C74.7857 82.6495 79.4435 82.5784 84.1013 82.5072C85.488 82.365 86.8746 82.1339 88.2257 81.8139C102.768 77.5828 111.212 68.0006 113.559 53.0495C113.701 44.2672 113.701 35.485 113.559 26.7028ZM22.0035 90.2939C16.2613 88.0539 11.9413 84.1961 9.0613 78.7206C4.99019 71.0584 3.19463 62.8806 3.67463 54.205C5.16797 57.0139 6.64352 59.8406 8.15463 62.685C16.6524 75.6628 28.688 82.9517 44.2435 84.5695C38.128 91.4495 30.7324 93.3695 22.0035 90.2939ZM11.8169 61.085C10.9457 59.5739 10.1457 58.045 9.41686 56.4984C12.5991 58.6495 16.1013 60.0006 19.9413 60.4984C29.5235 60.1606 37.0435 63.8584 42.5191 71.6095C44.208 74.365 45.2391 77.3339 45.6124 80.5517C31.1413 79.5206 19.8702 73.0317 11.8169 61.085ZM61.0791 61.9917C63.4435 52.6761 69.2213 46.525 78.3769 43.5561C79.8169 43.1472 81.2569 42.845 82.7324 42.6317C89.488 42.9161 95.8169 41.4761 101.755 38.2761C102.839 37.6539 103.835 36.925 104.724 36.1072C103.07 40.3917 100.741 44.3561 97.7369 48.0184C95.1057 50.7206 92.0835 52.9072 88.688 54.5428C85.5057 55.6806 82.3057 56.7472 79.0702 57.7606C71.2657 61.3517 66.4302 67.3428 64.5102 75.7339C60.9546 71.7872 59.8169 67.2184 61.0791 61.9917ZM62.8035 101.067C67.0524 101.121 71.1769 101.885 75.1769 103.361C77.1502 104.196 79.1413 105.032 81.1324 105.867C83.8702 106.312 86.6257 106.703 89.3813 107.023C91.3724 107.592 93.1324 108.587 94.6435 109.992C69.4346 110.152 44.2435 110.152 19.0346 109.992C20.5457 108.587 22.3057 107.592 24.2969 107.023C26.7324 106.667 29.1857 106.365 31.6391 106.098C34.8391 104.889 38.0391 103.663 41.2569 102.436C44.4391 101.583 47.6569 101.085 50.8746 100.943C54.8569 100.907 58.8213 100.943 62.8035 101.067ZM58.7857 90.8628C58.6791 92.9961 58.6257 95.1472 58.6791 97.2806H54.9991C55.1057 95.5739 54.9813 93.9028 54.6613 92.2317C52.0835 90.6317 49.5235 88.9784 46.9813 87.3073C47.568 86.6495 48.0657 85.9206 48.4746 85.1384C50.3235 86.1161 52.208 87.0761 54.0924 88.0006C54.6969 88.1606 55.3191 88.1606 55.9235 88.0006C58.3413 85.5472 60.6169 82.9872 62.8035 80.3206C63.6213 80.9961 64.3857 81.7606 65.0969 82.6139C63.0346 85.405 60.9369 88.1428 58.7857 90.8628ZM109.879 49.1561C109.275 61.9739 103.212 71.1117 91.6746 76.5517C88.0835 78.045 84.3324 78.8095 80.4391 78.8272C76.3146 78.9517 72.1902 78.9872 68.0657 78.9517C69.2391 70.0984 73.9857 64.0184 82.2702 60.7295C91.7991 58.8272 99.1591 53.8139 104.386 45.725C106.306 42.3472 108.101 38.9161 109.772 35.4139C110.039 39.965 110.075 44.5339 109.879 49.1561Z" fill="#44C5FF"/>
</svg>
